<svg width="360" height="360" viewBox="0 0 360 360" fill="none" xmlns="http://www.w3.org/2000/svg">
<path d="M170.797 342.915C75.3389 342.915 0 271.142 0 180.458C0 88.4843 76.195 18 170.797 18C257.265 18 307.776 48.9443 337.741 96.6501C352.723 120.288 360 148.224 360 180.458C360 245.355 327.895 293.92 274.816 321.856C248.704 335.609 214.031 342.915 170.797 342.915ZM160.523 323.145C238.002 323.145 302.212 259.967 302.212 180.887C302.212 102.667 238.43 38.6295 160.523 38.6295C81.3318 38.6295 20.1189 104.816 20.1189 180.887C20.1189 231.602 47.0868 279.308 90.3211 304.235C112.152 316.699 135.268 323.145 160.523 323.145Z" fill="#F25E36"/>
</svg>
