<svg width="120" height="35" viewBox="0 0 120 35" fill="none" xmlns="http://www.w3.org/2000/svg">
<path fill-rule="evenodd" clip-rule="evenodd" d="M103.648 7.74564C104.75 5.36369 106.454 1.68457 106.532 1.56404C106.807 1.14504 107.238 0.708858 108.05 0.407527C108.656 0.180811 109.631 0 111.218 0C113.121 0 114.229 0.278389 114.875 0.591199C116.286 1.27422 116.545 2.24993 116.548 3.11375L116.551 3.97182L117.021 3.96324C117.756 3.96324 118.356 4.0895 118.864 4.49702C119.196 4.76104 119.547 5.16855 119.762 5.92618C119.897 6.40257 120 7.17169 120 8.40858C120 9.62539 119.897 10.4088 119.759 10.9225C119.696 11.1521 119.621 11.353 119.538 11.5281C119.529 11.6945 119.478 11.861 119.38 12.0073L116.553 16.3063V18.8031C117.262 18.8088 117.845 18.9351 118.341 19.334C118.674 19.6009 119.024 20.0055 119.24 20.7631C119.374 21.2395 119.478 22.0086 119.478 23.2455C119.478 24.735 119.314 25.6045 119.119 26.1211C118.918 26.652 114.679 33.7232 114.59 33.8007C114.59 33.8007 113.374 34.8252 111.835 34.8252H106.001C105.16 34.8252 104.127 34.5498 103.427 33.7749C102.959 33.2583 102.618 32.5151 102.618 31.4417V28.196C101.16 30.3684 98.9126 33.8696 98.9011 33.884C98.9011 33.884 98.3932 34.8511 95.6267 34.8511H77.3115C76.3386 34.8511 75.5637 34.5153 75.0185 33.9614C74.6167 33.5539 74.3355 33.0173 74.2207 32.3773C73.6496 33.2555 73.2507 33.8782 73.2478 33.884C73.2478 33.884 72.737 34.8511 69.9705 34.8511H51.6553C50.6824 34.8511 49.9076 34.5153 49.3652 33.9614C48.8285 33.4162 48.5042 32.6442 48.5042 31.6943C48.5042 28.1931 48.5042 16.7999 48.5042 16.8229C48.5042 16.8229 48.5071 15.7696 49.1672 14.7049C49.7297 13.7923 54.0918 6.23611 54.4304 5.73676C55.1163 4.72946 56.7722 4.19855 58.2444 4.19855C59.7166 4.19855 70.0508 4.25022 72.3323 4.25022C74.7057 4.25022 76.0889 5.03081 76.9413 5.9348C77.7793 6.82731 78.115 7.9293 78.247 8.84764C79.1711 7.26637 79.9488 5.93765 80.0837 5.73676C80.7696 4.72946 82.4284 4.19855 83.9006 4.19855C85.3728 4.19855 95.7041 4.25022 97.9885 4.25022C100.362 4.25022 101.745 5.03081 102.597 5.9348C103.117 6.48868 103.444 7.12289 103.648 7.74564ZM70.5358 18.826C70.5358 18.694 70.4842 18.5677 70.3923 18.4759C70.3005 18.3841 70.1742 18.3324 70.0451 18.3324C67.7923 18.3381 58.5974 18.3611 58.5974 18.3611C56.8755 18.3611 55.1106 17.5145 55.1106 15.8041C55.1106 15.2244 55.0647 10.0989 55.0647 9.92098C55.0647 7.07125 56.7378 5.87738 58.6462 5.87738H72.6853C76.8437 5.87738 76.8351 9.5077 76.8351 10.604C76.8351 11.3157 76.9728 12.2713 74.2379 12.2713C71.503 12.2713 71.2275 11.8638 71.2275 11.5395C71.2275 11.2152 71.0065 11.0344 70.7826 11.0344C70.5588 11.0344 63.9381 11.0431 61.846 11.0431C61.6911 11.0431 61.5447 11.1062 61.4328 11.2152C61.3237 11.3243 61.2635 11.4735 61.2635 11.6285C61.2635 11.9327 61.2635 12.5325 61.2635 12.8367C61.2635 12.9917 61.3237 13.138 61.4328 13.2471C61.5447 13.359 61.6911 13.4193 61.846 13.4193C64.3457 13.4193 74.0112 13.4193 74.0112 13.4193C75.7302 13.4193 76.8351 14.2659 76.8351 15.9763V23.7133C76.8351 25.2314 75.6585 26.1297 73.75 26.1297H58.9475C56.1609 26.1297 55.1106 24.4996 55.1106 22.4649V20.7201C55.1106 20.347 55.432 19.5176 58.1669 19.5176C60.9019 19.5176 61.031 19.8878 61.1831 20.1892C61.3323 20.4848 61.5619 20.7201 61.846 20.7201C62.1302 20.7201 68.1166 20.7229 70.0451 20.7229C70.1742 20.7229 70.3005 20.6713 70.3923 20.5795C70.4842 20.4876 70.5358 20.3614 70.5358 20.2293C70.5358 19.819 70.5358 19.2364 70.5358 18.826ZM96.192 18.826C96.192 18.694 96.1403 18.5677 96.0485 18.4759C95.9538 18.3841 95.8304 18.3324 95.6984 18.3324C93.4456 18.3381 84.2507 18.3611 84.2507 18.3611C82.5317 18.3611 80.7667 17.5145 80.7667 15.8041C80.7667 15.2244 80.7208 10.0989 80.7208 9.92098C80.7208 7.07125 82.3939 5.87738 84.3024 5.87738H98.3386C102.497 5.87738 102.491 9.5077 102.491 10.604C102.491 11.3157 102.629 12.2713 99.8912 12.2713C97.1563 12.2713 96.8808 11.8638 96.8808 11.5395C96.8808 11.2152 96.6626 11.0344 96.4388 11.0344C96.215 11.0344 89.5943 11.0431 87.5022 11.0431C87.3472 11.0431 87.198 11.1062 87.0889 11.2152C86.9799 11.3243 86.9168 11.4735 86.9168 11.6285C86.9168 11.9327 86.9168 12.5325 86.9168 12.8367C86.9168 12.9917 86.9799 13.138 87.0889 13.2471C87.198 13.359 87.3472 13.4193 87.5022 13.4193C90.0018 13.4193 99.6673 13.4193 99.6673 13.4193C101.386 13.4193 102.491 14.2659 102.491 15.9763V23.7133C102.491 25.2314 101.312 26.1297 99.4033 26.1297H84.6008C81.8171 26.1297 80.7667 24.4996 80.7667 22.4649V20.7201C80.7667 20.347 81.0882 19.5176 83.8231 19.5176C86.558 19.5176 86.6872 19.8878 86.8364 20.1892C86.9856 20.4848 87.2181 20.7201 87.5022 20.7201C87.7863 20.7201 93.7728 20.7229 95.6984 20.7229C95.8304 20.7229 95.9567 20.6713 96.0485 20.5795C96.1403 20.4876 96.192 20.3614 96.192 20.2293C96.192 19.819 96.192 19.2364 96.192 18.826ZM108.432 5.83149L108.394 3.12811C108.394 2.46231 108.44 1.82807 111.442 1.82807C114.404 1.82807 114.697 2.49102 114.697 3.10229L114.705 5.83149L117.018 5.79131C117.687 5.79131 118.152 5.65354 118.152 8.39135C118.152 10.8393 117.741 11.1349 117.211 11.1722V11.1751H114.705V19.5636C114.705 20.6598 115.325 20.6656 115.325 20.6656L116.496 20.6311C117.162 20.6311 117.627 20.4905 117.627 23.2283C117.627 25.9633 117.119 26.012 116.496 26.012C116.496 26.012 111.155 26.012 109.979 26.012C108.242 26.012 108.432 24.7091 108.432 23.9142V11.1751L107.534 11.1779C106.868 11.1779 106.403 11.3157 106.403 8.58076C106.403 5.84296 106.911 5.79418 107.534 5.79418L108.432 5.83149Z" fill="#E27152"/>
<path fill-rule="evenodd" clip-rule="evenodd" d="M10.5066 28.4562C10.5346 28.4159 10.5375 28.3628 10.5141 28.317C10.4907 28.2731 10.4447 28.2456 10.3947 28.2456C9.33491 28.2456 5.20587 28.2456 2.48106 28.2456C1.82271 28.2456 1.19126 27.9837 0.72593 27.5186C0.260594 27.0534 -0.000548527 26.4216 8.65107e-07 25.7623C0.00274783 22.3336 0.00769272 16.3338 0.00952403 14.2438C0.00989029 13.7568 0.137539 13.2785 0.379821 12.8562C1.25372 11.3331 3.45898 7.48973 4.60721 5.48848C5.05277 4.712 5.87942 4.2333 6.77457 4.2333H32.4266C32.9663 4.2333 33.4637 4.5263 33.7252 4.99842C33.9869 5.47071 33.9715 6.04757 33.6853 6.5054C32.7332 8.0274 31.5448 9.9272 30.9268 10.9154C30.8427 11.0498 30.8381 11.2192 30.9151 11.3578C30.9918 11.4964 31.1377 11.5825 31.2963 11.5825C32.6663 11.5825 35.5358 11.5825 37.5462 11.5825C38.7538 11.5825 39.7328 12.5615 39.7328 13.7691C39.7328 16.7431 39.7328 22.0135 39.7328 24.821C39.7328 26.0553 39.4198 27.2713 38.8232 28.3518C38.0714 29.7143 36.8516 31.6445 36.0823 33.0381C35.4803 34.1296 34.3326 34.8071 33.0864 34.8071C28.0075 34.8071 14.849 34.8071 9.01151 34.8071C8.45973 34.8071 7.95319 34.5032 7.69479 34.0142C7.4364 33.5271 7.46845 32.9374 7.77812 32.4814C8.82764 30.9321 10.0878 29.0752 10.5066 28.4562ZM14.217 27.2988C13.7136 27.2988 13.2415 27.5424 12.9514 27.9544C12.1513 29.0898 10.5159 31.4101 9.69294 32.5766C9.59679 32.714 9.5847 32.8916 9.66162 33.04C9.73835 33.1883 9.89127 33.2817 10.0583 33.2817C13.7436 33.2817 28.041 33.2817 32.5299 33.2817C33.3575 33.2817 34.1217 32.8385 34.5343 32.1206C35.1218 31.1006 36.1308 29.6136 36.7359 28.5624C36.8858 28.3023 36.8855 27.98 36.7346 27.72C36.5839 27.4581 36.3055 27.2988 36.0043 27.2988C31.4659 27.2988 17.6923 27.2988 14.217 27.2988ZM7.88067 20.8623C7.03424 20.8652 6.23598 21.256 5.7146 21.923C4.97072 22.8747 3.87138 24.2808 3.05517 25.3246C2.85189 25.5847 2.81473 25.9381 2.9594 26.2348C3.10407 26.5315 3.40532 26.7201 3.73551 26.7201C6.49364 26.7201 11.5028 26.7201 11.5028 26.7201C11.7771 26.1414 12.3604 25.7715 13.001 25.7715C16.073 25.7715 25.0197 25.7715 28.0128 25.7715C28.627 25.7715 29.1969 25.4528 29.5176 24.9291C30.0871 23.9988 30.9975 22.5116 31.5599 21.593C31.6606 21.4284 31.6644 21.222 31.5697 21.0539C31.4751 20.8856 31.2969 20.7815 31.1037 20.7823C27.1982 20.7958 12.4278 20.8465 7.88067 20.8623ZM31.7391 24.5317C31.5835 24.7808 31.5756 25.0976 31.7188 25.354C31.862 25.6122 32.1336 25.7715 32.4284 25.7715C33.7126 25.7715 35.5618 25.7715 36.7844 25.7715C37.1204 25.7715 37.4429 25.6378 37.6806 25.4016C37.9182 25.1635 38.0518 24.8412 38.0518 24.5042C38.0518 22.0697 38.0518 16.7655 38.0518 14.3507C38.0518 13.6647 37.4957 13.1085 36.8097 13.1085C32.8324 13.1085 20.4407 13.1085 16.4895 13.1085C15.7273 13.1085 15.018 13.4981 14.6091 14.1414C13.8883 15.2754 13.049 17.0834 12.3392 18.2001C12.2132 18.3985 12.2051 18.6497 12.3183 18.8559C12.4315 19.0619 12.6479 19.19 12.8829 19.19C16.4538 19.19 26.955 19.19 32.1777 19.19C32.7599 19.19 33.2961 19.5055 33.5789 20.0144C33.8616 20.5231 33.8461 21.1452 33.5386 21.6395C32.9258 22.6244 32.2459 23.7168 31.7391 24.5317ZM28.191 11.5825C28.3578 11.5825 28.5133 11.4983 28.6045 11.3585C29.0863 10.6207 30.6415 8.2391 31.4912 6.93795C31.6038 6.76526 31.613 6.54496 31.5148 6.36366C31.4166 6.18236 31.2271 6.06937 31.0209 6.06937C27.2764 6.06937 14.3963 6.06937 9.03824 6.06937C8.41029 6.06937 7.80797 6.31879 7.36406 6.76288C6.91997 7.20679 6.67054 7.80911 6.67054 8.43688C6.67054 10.7936 6.67054 14.3982 6.67054 16.8098C6.67054 17.4691 6.94067 18.0998 7.41791 18.5547C7.89496 19.0098 8.53775 19.2495 9.19629 19.2182C9.19647 19.2182 9.50651 19.2182 9.50651 19.2182C9.51475 19.1511 12.0123 14.8393 13.3909 12.7256C13.856 12.0125 14.6499 11.5825 15.5013 11.5825C18.7207 11.5825 26.6364 11.5825 28.191 11.5825Z" fill="#E27152"/>
</svg>
