<svg width="153" height="75" fill="none" xmlns="http://www.w3.org/2000/svg"><path fill-rule="evenodd" clip-rule="evenodd" d="M115.399 20.706s7.845-17.002 8.089-17.373c.582-.898 1.502-1.82 3.226-2.466C128 .389 130.075 0 133.448 0c4.045 0 6.404.597 7.772 1.26 3.002 1.455 3.554 3.53 3.561 5.365l.003 1.823 1.004-.016c1.558 0 2.834.265 3.917 1.132.705.564 1.449 1.428 1.91 3.038.287 1.014.505 2.646.505 5.277 0 2.586-.218 4.256-.516 5.344a7.815 7.815 0 0 1-.467 1.289 2.057 2.057 0 0 1-.333 1.02l-6.01 9.138v5.306c1.505.013 2.743.285 3.798 1.131.707.565 1.452 1.429 1.909 3.038.29 1.017.509 2.646.509 5.278 0 3.17-.351 5.018-.766 6.114-.429 1.13-9.436 16.165-9.627 16.328 0 0-2.585 2.179-5.855 2.179h-12.405c-1.788 0-3.982-.585-5.474-2.235-.991-1.098-1.721-2.677-1.721-4.96V21.66c0-.333.082-.658.237-.953ZM61.24 28.21c1.413 1.523 2.288 3.608 2.288 6.33 0 2.731-.18 13.586-.27 18.798a9.334 9.334 0 0 1-1.655 5.158c-2.93 4.276-8.86 13.511-8.882 13.544 0 0-1.083 2.057-6.966 2.057H6.816c-2.064 0-3.714-.717-4.868-1.889C.807 71.05.12 69.404.12 67.386V35.769s.008-2.235 1.406-4.503c1.195-1.94 10.471-18.006 11.19-19.066 1.458-2.143 4.981-3.267 8.11-3.267 3.13 0 25.097.104 29.953.104 5.046 0 7.985 1.66 9.797 3.585 2.736 2.906 2.952 6.866 2.952 8.87 0 1.932-.168 3.948-1.254 5.537a6.469 6.469 0 0 1-1.034 1.182Z" fill="#E27152"></path><path fill-rule="evenodd" clip-rule="evenodd" d="M115.782 28.21c1.414 1.523 2.288 3.608 2.288 6.33 0 2.731-.18 13.586-.269 18.798a9.338 9.338 0 0 1-1.655 5.158c-2.931 4.276-8.86 13.511-8.882 13.544 0 0-1.083 2.057-6.966 2.057H61.359c-2.064 0-3.714-.717-4.868-1.889-1.142-1.159-1.828-2.804-1.828-4.822V35.769s.008-2.235 1.406-4.503c1.195-1.94 10.471-18.006 11.19-19.066 1.457-2.143 4.98-3.267 8.11-3.267 3.13 0 25.097.104 29.952.104 5.046 0 7.985 1.66 9.798 3.585 2.735 2.906 2.951 6.866 2.951 8.87 0 1.932-.167 3.948-1.253 5.537a6.468 6.468 0 0 1-1.035 1.182Z" fill="#E27152"></path><path d="m127.525 12.4-.079-5.745c0-1.418.096-2.765 6.48-2.765 6.294 0 6.915 1.41 6.92 2.712l.012 5.799 4.922-.082c1.419 0 2.408-.292 2.408 5.522 0 5.209-.867 5.837-2.001 5.913v.005h-5.329v17.836c0 2.329 1.322 2.344 1.322 2.344l2.487-.076c1.421 0 2.41-.292 2.41 5.524 0 5.814-1.083 5.92-2.41 5.92h-13.853c-3.691 0-3.289-2.775-3.289-4.46V23.758l-1.907.008c-1.419 0-2.407.292-2.407-5.524 0-5.814 1.08-5.921 2.407-5.921l1.907.079Z" fill="#FFFBF9"></path><path fill-rule="evenodd" clip-rule="evenodd" d="M46.96 40.027a1.045 1.045 0 0 0-1.047-1.048l-24.34.061c-3.655 0-7.41-1.8-7.41-5.437 0-1.236-.096-12.13-.096-12.508 0-6.06 3.556-8.595 7.613-8.595h29.846c8.842 0 8.824 7.718 8.824 10.05 0 1.512.292 3.546-5.522 3.546-5.816 0-6.404-.87-6.404-1.559s-.462-1.073-.94-1.073c-.478 0-14.552.02-18.998.02a1.24 1.24 0 0 0-1.243 1.241v2.568a1.24 1.24 0 0 0 1.243 1.24h25.862c3.655 0 6.002 1.798 6.002 5.438v16.443c0 3.231-2.504 5.143-6.562 5.143h-31.47c-5.92 0-8.155-3.465-8.155-7.794v-3.71c0-.793.684-2.554 6.5-2.554 5.815 0 6.09.788 6.41 1.426.315.633.808 1.129 1.413 1.129l17.427.007a1.047 1.047 0 0 0 1.047-1.047v-2.987ZM101.503 40.027a1.048 1.048 0 0 0-1.048-1.047l-24.338.06c-3.656 0-7.41-1.8-7.41-5.437 0-1.236-.098-12.13-.098-12.508 0-6.06 3.557-8.595 7.614-8.595h29.846c8.841 0 8.824 7.718 8.824 10.05 0 1.512.292 3.546-5.522 3.546-5.817 0-6.404-.87-6.404-1.559s-.462-1.073-.94-1.073c-.478 0-14.552.02-19 .02a1.24 1.24 0 0 0-1.241 1.241v2.568a1.24 1.24 0 0 0 1.24 1.24h25.864c3.656 0 6.003 1.798 6.003 5.438v16.443c0 3.231-2.504 5.143-6.562 5.143h-31.47c-5.92 0-8.155-3.465-8.155-7.794v-3.71c0-.793.684-2.554 6.5-2.554 5.814 0 6.089.788 6.41 1.426.315.633.808 1.129 1.41 1.129l17.429.007c.28 0 .544-.112.743-.307a1.05 1.05 0 0 0 .305-.74v-2.987Z" fill="#FFFBF9"></path>
</svg>
