<svg width="660" height="520" viewBox="0 0 660 520" fill="none" xmlns="http://www.w3.org/2000/svg">
<g clip-path="url(#clip0_1_32)">
<path d="M164.307 408.735C170.43 417.469 173.495 428.939 173.502 443.145C173.502 459.453 169.685 473.427 162.051 485.067C154.417 496.706 144.239 505.439 131.518 511.267C118.791 517.087 104.562 519.999 88.8334 520C72.402 520 56.2676 516.448 40.4303 509.343C24.5788 502.247 11.1021 491.594 0 477.384L30.5369 445.944C37.7018 456.19 46.7826 463.99 57.779 469.346C68.7755 474.701 79.9366 477.381 91.2622 477.384C102.596 477.384 111.734 474.765 118.676 469.525C125.618 464.286 129.088 457.239 129.085 448.385C129.085 441.871 127.005 436.515 122.843 432.316C118.682 428.118 113.476 424.741 107.228 422.185C100.98 419.628 92.6504 416.717 82.24 413.451C64.6576 408.333 50.5459 403.034 39.9049 397.553C29.2631 392.089 20.8776 384.93 14.7484 376.076C8.61916 367.222 5.55369 355.809 5.55193 341.836C5.55193 325.767 9.25321 311.91 16.6558 300.265C24.0583 288.619 34.1216 279.71 46.8455 273.537C59.5659 267.371 73.4461 264.287 88.4862 264.286C103.29 264.286 117.575 267.37 131.341 273.537C145.107 279.704 156.847 288.613 166.562 300.265L138.108 330.662C132.323 323.209 124.805 317.327 115.553 313.017C106.3 308.706 96.8158 306.551 87.0989 306.553C75.9977 306.553 66.9755 309.173 60.0323 314.413C53.0891 319.653 49.6188 326.816 49.6214 335.901C49.6214 343.118 51.8192 348.998 56.2148 353.54C60.6104 358.082 65.989 361.691 72.3505 364.366C78.7112 367.049 87.2128 369.903 97.8556 372.928C115.206 377.822 129.086 382.828 139.496 387.945C149.906 393.078 158.176 400.008 164.307 408.735ZM387.603 269.874L320.982 452.576L253.662 269.874H206.119L299.81 514.412H341.451L435.143 269.874H387.603ZM660 514.414H612.805L591.986 458.866H494.479L473.658 514.414H426.464L522.24 269.876H564.223L660 514.414ZM576.72 417.996L543.404 328.211L509.744 417.996H576.72Z" fill="currentColor"/>
<path d="M263.272 203.903C258.251 203.903 253.357 203.716 248.59 203.343C209.528 200.259 182.961 184.581 173.783 159.194C156.631 111.743 210.854 51.3515 299.905 18.7166C338.944 4.41904 378.557 -2.02741 411.415 0.565258C450.475 3.64961 477.04 19.3279 486.223 44.715C495.406 70.1021 485.06 99.3031 457.104 126.939C433.577 150.198 399.124 170.885 360.097 185.184C326.722 197.41 292.923 203.903 263.272 203.903ZM396.866 45.4193C372.585 45.4193 343.538 51.0578 315.337 61.3912C282.715 73.3512 253.253 90.8341 234.508 109.364C218.869 124.826 214.032 137.727 216.176 143.65C218.32 149.572 230.258 156.327 252.113 158.053C278.307 160.114 312.041 154.448 344.662 142.497C377.283 130.547 406.748 113.057 425.496 94.5244C441.136 79.0628 445.975 66.1619 443.828 60.2391C441.682 54.3162 429.744 47.5588 407.893 45.8366C404.347 45.5562 400.665 45.4193 396.866 45.4193Z" fill="currentColor"/>
</g>
<defs>
<clipPath id="clip0_1_32">
<rect width="660" height="520" fill="currentColor"/>
</clipPath>
</defs>
</svg>
