<svg width="1604" height="320" viewBox="0 0 1604 320" fill="none" xmlns="http://www.w3.org/2000/svg">
<g clip-path="url(#clip0_1_16)">
<path fill-rule="evenodd" clip-rule="evenodd" d="M0 320H320V0H0V320ZM173 175.9V247H146V175.9L77.1 73H110L159.6 149L209 73H241.9L173 175.9Z" fill="currentColor"/>
<path fill-rule="evenodd" clip-rule="evenodd" d="M507.654 107.317C478.054 107.317 455.854 130.217 455.854 159.817C455.854 189.417 478.054 212.517 507.654 212.517C526.654 212.517 543.154 202.717 552.054 186.217L577.454 201.317C563.254 225.617 536.654 241.417 507.654 241.417C462.054 241.317 425.854 205.117 425.854 159.817C425.854 114.417 462.054 78.217 507.654 78.217C536.954 78.217 563.254 93.817 577.454 118.317L552.054 133.417C543.054 116.917 526.654 107.317 507.654 107.317Z" fill="currentColor"/>
<path fill-rule="evenodd" clip-rule="evenodd" d="M675.054 180.417C675.054 161.917 661.554 147.917 644.154 147.917C626.254 147.917 612.754 161.917 612.754 180.417C612.754 198.917 626.254 212.917 644.154 212.917C661.254 212.917 675.054 198.917 675.054 180.417ZM583.654 180.417C583.654 147.017 610.454 120.217 644.154 120.217C677.354 120.217 704.154 147.017 704.154 180.417C704.154 213.817 677.354 240.617 644.154 240.617C610.454 240.617 583.654 213.817 583.654 180.417Z" fill="currentColor"/>
<path fill-rule="evenodd" clip-rule="evenodd" d="M892.954 170.817V238.017H863.954V175.917C863.954 158.517 855.454 147.517 842.654 147.517C829.554 147.517 819.954 158.517 819.954 175.917V238.017H791.954V175.917C791.954 158.517 783.154 147.517 770.254 147.517C757.354 147.517 747.954 158.517 747.954 175.917V238.017H718.954V123.017H747.954V137.717C755.054 126.717 766.054 119.817 779.554 119.817C794.254 119.817 805.854 128.117 812.954 141.017C820.254 129.517 833.754 119.817 850.754 119.817C876.254 119.817 892.954 142.317 892.954 170.817Z" fill="currentColor"/>
<path fill-rule="evenodd" clip-rule="evenodd" d="M996.054 181.617C996.054 162.417 984.154 148.617 967.454 148.617C951.154 148.617 938.854 161.717 938.854 181.317C938.854 200.817 951.454 214.017 967.954 214.017C984.154 213.917 996.054 200.417 996.054 181.617ZM973.554 241.017C957.554 241.017 945.754 233.717 938.954 223.617V238.017H909.954V78.017H938.954V137.017C945.954 127.617 957.754 120.817 973.054 120.817C1002.75 120.817 1025.45 146.417 1025.95 180.917C1026.45 215.817 1003.25 241.017 973.554 241.017Z" fill="currentColor"/>
<path fill-rule="evenodd" clip-rule="evenodd" d="M1037.95 238.017H1066.95V123.017H1037.95V238.017ZM1034.25 90.417C1034.25 80.617 1042.45 73.217 1052.35 73.217C1061.95 73.217 1069.95 80.517 1069.95 90.417C1069.95 100.217 1061.95 107.617 1052.35 107.617C1042.55 107.517 1034.25 100.217 1034.25 90.417Z" fill="currentColor"/>
<path fill-rule="evenodd" clip-rule="evenodd" d="M1191.95 171.317V238.017H1163.95V177.517C1163.95 159.017 1154.25 147.517 1140.25 147.517C1124.85 147.517 1113.95 161.517 1113.95 178.017V238.017H1085.95V123.017H1113.95V137.517C1121.75 126.717 1134.25 119.817 1148.85 119.817C1174.65 119.817 1191.95 141.817 1191.95 171.317Z" fill="currentColor"/>
<path fill-rule="evenodd" clip-rule="evenodd" d="M1279.95 187.017V184.517L1250.65 190.217C1240.85 192.517 1234.85 197.517 1234.85 204.217C1234.85 211.317 1241.35 216.617 1252.05 216.317C1267.45 215.817 1279.95 202.417 1279.95 187.017ZM1307.95 168.617V238.017H1279.95V224.717C1271.45 233.917 1258.15 240.717 1243.45 241.017C1223.95 241.017 1206.75 228.217 1206.75 206.217C1206.75 185.417 1222.35 173.517 1245.55 168.917L1279.25 162.517C1276.95 152.917 1269.65 145.617 1258.55 145.617C1247.55 145.617 1237.25 152.517 1231.05 161.217L1209.95 145.917C1220.75 130.817 1239.75 120.717 1258.65 120.717C1286.85 120.517 1307.95 140.017 1307.95 168.617Z" fill="currentColor"/>
<path fill-rule="evenodd" clip-rule="evenodd" d="M1366.95 149.017V197.217C1366.95 206.617 1371.05 210.917 1379.55 210.917H1393.95V237.917H1375.55C1351.05 237.917 1338.95 225.917 1338.95 200.717V149.017H1317.95V123.017H1337.95V94.617L1366.95 85.717V123.017H1393.95V149.017H1366.95Z" fill="currentColor"/>
<path fill-rule="evenodd" clip-rule="evenodd" d="M1494.85 180.417C1494.85 161.917 1481.35 147.917 1463.95 147.917C1446.05 147.917 1432.55 161.917 1432.55 180.417C1432.55 198.917 1446.05 212.917 1463.95 212.917C1481.05 212.917 1494.85 198.917 1494.85 180.417ZM1403.45 180.417C1403.45 147.017 1430.25 120.217 1463.95 120.217C1497.15 120.217 1523.95 147.017 1523.95 180.417C1523.95 213.817 1497.15 240.617 1463.95 240.617C1430.25 240.617 1403.45 213.817 1403.45 180.417Z" fill="currentColor"/>
<path fill-rule="evenodd" clip-rule="evenodd" d="M1603.95 120.517V148.417C1578.05 148.417 1566.95 161.017 1566.95 177.517V238.017H1538.95V123.017H1566.95V137.417C1574.85 127.117 1587.55 120.517 1603.95 120.517Z" fill="currentColor"/>
</g>
<defs>
<clipPath id="clip0_1_16">
<rect width="1604" height="320" fill="currentColor"/>
</clipPath>
</defs>
</svg>
