<svg width="82" height="64" viewBox="0 0 82 64" fill="none" xmlns="http://www.w3.org/2000/svg">
<path fill-rule="evenodd" clip-rule="evenodd" d="M21.6833 49.9909C21.7412 49.9077 21.7472 49.7981 21.6988 49.7036C21.6505 49.6129 21.5556 49.5562 21.4524 49.5562C19.2653 49.5562 10.7438 49.5562 5.12039 49.5562C3.76168 49.5562 2.45852 49.0158 1.49816 48.0558C0.537811 47.0958 -0.00113204 45.7919 1.7854e-06 44.4313C0.00567093 37.3551 0.0158761 24.9729 0.0196556 20.6595C0.0204114 19.6545 0.28385 18.6673 0.783869 17.7958C2.58741 14.6525 7.13859 6.72058 9.5083 2.59042C10.4278 0.987944 12.1339 0 13.9813 0H66.9216C68.0354 0 69.0619 0.6047 69.6016 1.57904C70.1417 2.55375 70.1099 3.74427 69.5192 4.68913C67.5543 7.83021 65.1018 11.751 63.8262 13.7904C63.6528 14.0678 63.6433 14.4174 63.8021 14.7035C63.9604 14.9896 64.2616 15.1672 64.5889 15.1672C67.4163 15.1672 73.3383 15.1672 77.4874 15.1672C79.9795 15.1672 82 17.1877 82 19.6798C82 25.8176 82 36.6944 82 42.4887C82 45.036 81.3541 47.5455 80.1228 49.7754C78.5713 52.5873 76.0538 56.5708 74.4661 59.447C73.2238 61.6995 70.8552 63.0979 68.2833 63.0979C57.8015 63.0979 30.6451 63.0979 18.5978 63.0979C17.4591 63.0979 16.4137 62.4705 15.8804 61.4614C15.3471 60.4561 15.4133 59.2391 16.0524 58.298C18.2184 55.1006 20.819 51.2683 21.6833 49.9909ZM29.3408 47.6023C28.3019 47.6023 27.3275 48.1049 26.7289 48.9553C25.0776 51.2985 21.7026 56.0871 20.0041 58.4946C19.8057 58.778 19.7808 59.1446 19.9395 59.4508C20.0979 59.7569 20.4135 59.9496 20.7581 59.9496C28.3639 59.9496 57.8706 59.9496 67.1348 59.9496C68.8427 59.9496 70.4198 59.035 71.2713 57.5535C72.4838 55.4484 74.5662 52.3794 75.815 50.21C76.1245 49.6734 76.1238 49.0082 75.8123 48.4715C75.5013 47.9311 74.9268 47.6023 74.3051 47.6023C64.9389 47.6023 36.5131 47.6023 29.3408 47.6023ZM16.264 34.3187C14.5172 34.3247 12.8697 35.1313 11.7937 36.5078C10.2585 38.4719 7.98971 41.3737 6.30522 43.528C5.8857 44.0647 5.809 44.7941 6.10757 45.4064C6.40615 46.0187 7.02785 46.4079 7.70928 46.4079C13.4015 46.4079 23.7394 46.4079 23.7394 46.4079C24.3055 45.2136 25.5093 44.4502 26.8313 44.4502C33.1713 44.4502 51.6353 44.4502 57.8124 44.4502C59.08 44.4502 60.2562 43.7926 60.918 42.7117C62.0934 40.7917 63.9721 37.7225 65.1328 35.8267C65.3407 35.4869 65.3486 35.061 65.1532 34.714C64.9578 34.3667 64.5901 34.152 64.1913 34.1535C56.1313 34.1815 25.6483 34.2862 16.264 34.3187ZM65.5028 41.8915C65.1816 42.4055 65.1653 43.0594 65.4608 43.5885C65.7564 44.1214 66.3169 44.4502 66.9254 44.4502C69.5755 44.4502 73.392 44.4502 75.9151 44.4502C76.6087 44.4502 77.2742 44.1743 77.7648 43.6868C78.255 43.1954 78.5309 42.5303 78.5309 41.8348C78.5309 36.8105 78.5309 25.8638 78.5309 20.8802C78.5309 19.4644 77.3831 18.3166 75.9673 18.3166C67.7591 18.3166 42.1852 18.3166 34.0307 18.3166C32.4577 18.3166 30.994 19.1205 30.15 20.4482C28.6624 22.7884 26.9303 26.5198 25.4654 28.8245C25.2054 29.2339 25.1888 29.7524 25.4223 30.178C25.6559 30.6031 26.1026 30.8673 26.5875 30.8673C33.957 30.8673 55.6294 30.8673 66.408 30.8673C67.6094 30.8673 68.7161 31.5185 69.2996 32.5688C69.8831 33.6188 69.851 34.9026 69.2165 35.9227C67.9519 37.9553 66.5486 40.2097 65.5028 41.8915ZM58.1802 15.1672C58.5245 15.1672 58.8453 14.9933 59.0336 14.705C60.0279 13.1822 63.2374 8.26711 64.9911 5.58183C65.2235 5.22543 65.2424 4.77077 65.0398 4.39661C64.8372 4.02244 64.4461 3.78925 64.0205 3.78925C56.2927 3.78925 29.7108 3.78925 18.653 3.78925C17.357 3.78925 16.114 4.30401 15.1979 5.22052C14.2813 6.13665 13.7666 7.3797 13.7666 8.67529C13.7666 13.539 13.7666 20.9781 13.7666 25.9552C13.7666 27.3158 14.3241 28.6174 15.309 29.5563C16.2935 30.4954 17.6201 30.9902 18.9792 30.9255C18.9796 30.9255 19.6194 30.9255 19.6194 30.9255C19.6364 30.7872 24.7908 21.8885 27.6359 17.5263C28.5959 16.0546 30.2343 15.1672 31.9914 15.1672C38.6356 15.1672 54.9718 15.1672 58.1802 15.1672Z" fill="#E27152"/>
</svg>
