<svg width="256" height="75" viewBox="0 0 256 75" fill="none" xmlns="http://www.w3.org/2000/svg">
<path fill-rule="evenodd" clip-rule="evenodd" d="M218.399 20.7061C218.399 20.7061 226.244 3.70391 226.488 3.33275C227.07 2.43536 227.99 1.51254 229.714 0.866821C231 0.388885 233.075 0 236.448 0C240.493 0 242.852 0.597343 244.22 1.26086C247.222 2.71499 247.774 4.78946 247.781 6.62492L247.784 8.44769L248.788 8.43241C250.346 8.43241 251.622 8.69682 252.705 9.56371C253.41 10.1281 254.154 10.9924 254.615 12.6016C254.902 13.6159 255.12 15.248 255.12 17.8792C255.12 20.4646 254.902 22.1348 254.604 23.2229C254.47 23.716 254.312 24.1406 254.137 24.5118C254.119 24.8652 254.009 25.216 253.804 25.5312L247.794 34.6703V39.9759C249.299 39.9886 250.537 40.2606 251.592 41.1072C252.299 41.6715 253.044 42.5359 253.501 44.1451C253.791 45.162 254.01 46.7915 254.01 49.4227C254.01 52.5928 253.659 54.441 253.244 55.5366C252.815 56.6679 243.808 71.7024 243.617 71.8651C243.617 71.8651 241.032 74.0438 237.762 74.0438H225.357C223.569 74.0438 221.375 73.4591 219.883 71.8092C218.892 70.711 218.162 69.1323 218.162 66.8494V21.6594C218.162 21.3264 218.244 21.001 218.399 20.7061Z" fill="#E27152"/>
<path fill-rule="evenodd" clip-rule="evenodd" d="M164.24 28.2106C165.653 29.7334 166.528 31.818 166.528 34.5407C166.528 37.271 166.347 48.1262 166.258 53.3376C166.228 55.1833 165.653 56.978 164.603 58.4957C161.672 62.7717 155.744 72.0075 155.721 72.0405C155.721 72.0405 154.638 74.0972 148.755 74.0972H109.816C107.752 74.0972 106.102 73.3803 104.948 72.2083C103.807 71.0491 103.12 69.4043 103.12 67.3858C103.12 59.9448 103.12 35.7228 103.12 35.7685C103.12 35.7685 103.128 33.534 104.526 31.2663C105.721 29.3266 114.997 13.26 115.717 12.1999C117.173 10.0568 120.697 8.93317 123.826 8.93317C126.956 8.93317 148.923 9.03745 153.779 9.03745C158.825 9.03745 161.764 10.6975 163.576 12.6219C166.312 15.5277 166.528 19.4884 166.528 21.4916C166.528 23.4237 166.36 25.4396 165.274 27.0285C164.997 27.4327 164.662 27.8344 164.24 28.2106Z" fill="#E27152"/>
<path fill-rule="evenodd" clip-rule="evenodd" d="M218.782 28.2106C220.196 29.7334 221.07 31.818 221.07 34.5407C221.07 37.271 220.89 48.1262 220.801 53.3376C220.77 55.1833 220.196 56.978 219.146 58.4957C216.215 62.7717 210.286 72.0075 210.264 72.0405C210.264 72.0405 209.181 74.0972 203.298 74.0972H164.359C162.295 74.0972 160.645 73.3803 159.491 72.2083C158.349 71.0491 157.663 69.4043 157.663 67.3858C157.663 59.9448 157.663 35.7228 157.663 35.7685C157.663 35.7685 157.671 33.534 159.069 31.2663C160.264 29.3266 169.54 13.26 170.26 12.1999C171.716 10.0568 175.24 8.93317 178.369 8.93317C181.499 8.93317 203.466 9.03745 208.321 9.03745C213.367 9.03745 216.306 10.6975 218.119 12.6219C220.854 15.5277 221.07 19.4884 221.07 21.4916C221.07 23.4237 220.903 25.4396 219.817 27.0285C219.54 27.4327 219.204 27.8344 218.782 28.2106Z" fill="#E27152"/>
<path d="M230.525 12.4008L230.446 6.65542C230.446 5.23687 230.542 3.88956 236.926 3.88956C243.22 3.88956 243.841 5.30044 243.846 6.60204L243.858 12.4008L248.78 12.3194C250.199 12.3194 251.188 12.0271 251.188 17.841C251.188 23.05 250.321 23.678 249.187 23.7542V23.7593H243.858V41.5953C243.858 43.924 245.18 43.9392 245.18 43.9392L247.667 43.863C249.088 43.863 250.077 43.5705 250.077 49.3871C250.077 55.2011 248.994 55.3079 247.667 55.3079C247.667 55.3079 236.316 55.3079 233.814 55.3079C230.123 55.3079 230.525 52.5318 230.525 50.8463V23.7593L228.618 23.7669C227.199 23.7669 226.211 24.0593 226.211 18.2428C226.211 12.4288 227.291 12.322 228.618 12.322L230.525 12.4008Z" fill="#FFFBF9"/>
<path fill-rule="evenodd" clip-rule="evenodd" d="M149.96 40.0268C149.96 39.7472 149.851 39.4827 149.652 39.2844C149.457 39.0887 149.19 38.9794 148.913 38.9794C144.123 38.9921 124.574 39.0404 124.574 39.0404C120.918 39.0404 117.163 37.2406 117.163 33.6027C117.163 32.3672 117.067 21.4739 117.067 21.0951C117.067 15.0345 120.623 12.5 124.68 12.5H154.526C163.368 12.5 163.35 20.2181 163.35 22.5493C163.35 24.0619 163.642 26.0956 157.828 26.0956C152.012 26.0956 151.424 25.2261 151.424 24.5372C151.424 23.8483 150.962 23.4644 150.484 23.4644C150.006 23.4644 135.932 23.4847 131.486 23.4847C131.155 23.4847 130.84 23.6144 130.606 23.8483C130.375 24.0796 130.243 24.3949 130.243 24.7253C130.243 25.3711 130.243 26.6473 130.243 27.293C130.243 27.6209 130.375 27.9362 130.606 28.17C130.84 28.4039 131.155 28.5336 131.486 28.5336C136.797 28.5336 157.348 28.5336 157.348 28.5336C161.003 28.5336 163.35 30.3309 163.35 33.9713V50.4142C163.35 53.6453 160.846 55.557 156.788 55.557H125.319C119.398 55.557 117.163 52.092 117.163 47.7627V44.0536C117.163 43.2604 117.847 41.4987 123.664 41.4987C129.478 41.4987 129.752 42.2868 130.073 42.9249C130.388 43.5579 130.881 44.0536 131.486 44.0536C132.088 44.0536 144.815 44.0587 148.913 44.0612C149.192 44.0612 149.457 43.9494 149.655 43.7537C149.851 43.5579 149.96 43.291 149.96 43.0139C149.96 42.1393 149.96 40.9013 149.96 40.0268Z" fill="#FFFBF9"/>
<path fill-rule="evenodd" clip-rule="evenodd" d="M204.503 40.0268C204.503 39.7472 204.394 39.4827 204.195 39.2844C203.999 39.0887 203.732 38.9794 203.455 38.9794C198.666 38.9921 179.117 39.0404 179.117 39.0404C175.461 39.0404 171.706 37.2406 171.706 33.6027C171.706 32.3672 171.609 21.4739 171.609 21.0951C171.609 15.0345 175.166 12.5 179.223 12.5H209.069C217.91 12.5 217.893 20.2181 217.893 22.5493C217.893 24.0619 218.185 26.0956 212.371 26.0956C206.554 26.0956 205.967 25.2261 205.967 24.5372C205.967 23.8483 205.505 23.4644 205.027 23.4644C204.549 23.4644 190.475 23.4847 186.026 23.4847C185.698 23.4847 185.383 23.6144 185.149 23.8483C184.918 24.0796 184.786 24.3949 184.786 24.7253C184.786 25.3711 184.786 26.6473 184.786 27.293C184.786 27.6209 184.918 27.9362 185.149 28.17C185.383 28.4039 185.698 28.5336 186.026 28.5336C191.339 28.5336 211.89 28.5336 211.89 28.5336C215.546 28.5336 217.893 30.3309 217.893 33.9713V50.4142C217.893 53.6453 215.389 55.557 211.331 55.557H179.861C173.941 55.557 171.706 52.092 171.706 47.7627V44.0536C171.706 43.2604 172.39 41.4987 178.206 41.4987C184.02 41.4987 184.295 42.2868 184.615 42.9249C184.931 43.5579 185.424 44.0536 186.026 44.0536C186.631 44.0536 199.357 44.0587 203.455 44.0612C203.735 44.0612 203.999 43.9494 204.198 43.7537C204.393 43.5579 204.503 43.291 204.503 43.0139C204.503 42.1393 204.503 40.9013 204.503 40.0268Z" fill="#FFFBF9"/>
<path fill-rule="evenodd" clip-rule="evenodd" d="M22.3366 60.4998C22.3963 60.4118 22.4025 60.2981 22.3527 60.2034C22.3029 60.11 22.2052 60.0518 22.0988 60.0518C19.8457 60.0518 11.0675 60.0518 5.27476 60.0518C3.87494 60.0518 2.53263 59.4956 1.54343 58.5049C0.554086 57.5142 -0.00121606 56.1716 1.99966e-06 54.7722C0.00595698 47.4814 0.0165138 34.7255 0.020168 30.2823C0.0209801 29.247 0.292474 28.2306 0.80758 27.3319C2.66553 24.0945 7.3536 15.924 9.79487 11.6689C10.742 10.0178 12.4996 9 14.4027 9H68.938C70.0857 9 71.1428 9.62395 71.6991 10.6268C72.2552 11.6311 72.2227 12.8572 71.6141 13.8303C69.5899 17.0663 67.0634 21.1062 65.7494 23.2067C65.5707 23.4923 65.5611 23.8523 65.7245 24.1473C65.8877 24.4424 66.1982 24.6251 66.535 24.6251C69.448 24.6251 75.5484 24.6251 79.8223 24.6251C82.3898 24.6251 84.471 26.7066 84.471 29.274V52.7691C84.471 55.3947 83.8057 57.9784 82.5371 60.2765C80.939 63.1728 78.3456 67.2763 76.7102 70.2403C75.4301 72.56 72.9904 74 70.3411 74H19.1583C17.9853 74 16.9082 73.3517 16.3589 72.315C15.8095 71.2797 15.8777 70.0237 16.536 69.0533C18.7674 65.7632 21.4462 61.8126 22.3366 60.4998Z" fill="#E27152"/>
<path fill-rule="evenodd" clip-rule="evenodd" d="M30.2249 58.0353C29.1545 58.0353 28.1511 58.5563 27.5344 59.4306C25.8334 61.8437 22.3568 66.7755 20.6071 69.2577C20.4026 69.5487 20.3769 69.9276 20.5402 70.243C20.7036 70.5583 21.0288 70.7559 21.3835 70.7559C29.2185 70.7559 59.6145 70.7559 69.1579 70.7559C70.9171 70.7559 72.542 69.8153 73.419 68.29C74.6679 66.1178 76.8133 62.9603 78.0993 60.7231C78.4186 60.1682 78.4177 59.4847 78.097 58.9312C77.7763 58.3763 77.1844 58.0353 76.5441 58.0353C66.8957 58.0353 37.6132 58.0353 30.2249 58.0353Z" fill="#FFFBF9"/>
<path fill-rule="evenodd" clip-rule="evenodd" d="M16.7542 44.3536C14.9549 44.359 13.2576 45.19 12.1493 46.6084C10.5674 48.6318 8.23064 51.6214 6.4953 53.841C6.06303 54.3932 5.98399 55.1443 6.29162 55.775C6.59911 56.407 7.23968 56.8063 7.94155 56.8063H24.4549C25.0379 55.576 26.278 54.7911 27.6401 54.7911C34.1708 54.7911 53.1912 54.7911 59.5546 54.7911C60.8602 54.7911 62.0719 54.1117 62.7536 52.9978C63.9647 51.0205 65.8999 47.8603 67.0955 45.9073C67.3097 45.5568 67.3179 45.1183 67.1166 44.761C66.9154 44.4023 66.5363 44.1817 66.1258 44.1831C57.8228 44.2115 26.4211 44.3198 16.7542 44.3536Z" fill="#FFFBF9"/>
<path fill-rule="evenodd" clip-rule="evenodd" d="M67.4768 52.1533C67.1457 52.6852 67.129 53.3552 67.4334 53.9033C67.7378 54.4514 68.3153 54.7911 68.942 54.7911H78.2027C78.9173 54.7911 79.6027 54.5069 80.1079 54.0021C80.6133 53.4959 80.8971 52.8111 80.8971 52.0965C80.8971 46.9197 80.8971 35.6431 80.8971 30.5097C80.8971 29.0507 79.7149 27.8692 78.2565 27.8692C69.8008 27.8692 43.4566 27.8692 35.056 27.8692C33.4357 27.8692 31.9278 28.6975 31.0586 30.0644C29.526 32.4762 27.742 36.3198 26.2329 38.6937C25.9648 39.1146 25.9477 39.6492 26.1884 40.0877C26.4289 40.5262 26.889 40.7983 27.3888 40.7983H68.4092C69.6466 40.7983 70.7869 41.4696 71.3879 42.5509C71.9888 43.6323 71.9561 44.9546 71.3022 46.0062C69.9995 48.0999 68.554 50.4223 67.4768 52.1533Z" fill="#FFFBF9"/>
<path fill-rule="evenodd" clip-rule="evenodd" d="M59.9333 24.625C60.288 24.625 60.6187 24.4451 60.8126 24.1487C61.8367 22.5801 65.143 17.517 66.9494 14.7506C67.1889 14.3838 67.2083 13.9142 66.9997 13.5298C66.791 13.1441 66.3881 12.9045 65.9499 12.9045C57.9893 12.9045 30.6062 12.9045 19.215 12.9045C17.88 12.9045 16.5998 13.4337 15.6558 14.3784C14.712 15.3217 14.1816 16.602 14.1816 17.9379C14.1816 22.9482 14.1816 30.6112 14.1816 35.7379C14.1816 37.14 14.7557 38.4798 15.7702 39.4475C16.7847 40.4152 18.151 40.9241 19.5512 40.8578C19.5515 40.8578 20.2109 40.8578 20.2109 40.8578C20.2282 40.7157 25.538 31.549 28.4687 27.0544C29.4576 25.5386 31.1453 24.625 32.9555 24.625C39.7998 24.625 56.6284 24.625 59.9333 24.625Z" fill="#FFFBF9"/>
</svg>
