<svg width="169" height="82" viewBox="0 0 169 82" fill="none" xmlns="http://www.w3.org/2000/svg">
<path fill-rule="evenodd" clip-rule="evenodd" d="M129.745 18.2245C132.338 12.62 136.349 3.96357 136.532 3.67997C137.18 2.69414 138.193 1.66785 140.104 0.958857C141.528 0.425425 143.824 0 147.558 0C152.035 0 154.641 0.655013 156.16 1.39101C159.483 2.99806 160.09 5.29379 160.097 7.32623L160.104 9.34516L161.211 9.32497C162.94 9.32497 164.351 9.62206 165.546 10.5809C166.329 11.2021 167.153 12.1609 167.66 13.9435C167.977 15.0644 168.22 16.874 168.22 19.7843C168.22 22.6473 167.977 24.4906 167.653 25.6993C167.504 26.2395 167.329 26.7121 167.133 27.124C167.113 27.5157 166.991 27.9072 166.762 28.2516L160.111 38.3666V44.2411C161.778 44.2546 163.149 44.5517 164.317 45.4903C165.101 46.1182 165.924 47.0703 166.431 48.8529C166.748 49.9738 166.991 51.7834 166.991 54.6936C166.991 58.1981 166.606 60.2441 166.147 61.4595C165.674 62.7086 155.701 79.3463 155.492 79.5286C155.492 79.5286 152.629 81.9392 149.01 81.9392H135.282C133.304 81.9392 130.873 81.291 129.226 79.4679C128.125 78.2525 127.321 76.5036 127.321 73.9783V66.3414C123.891 71.4529 118.604 79.6907 118.577 79.7245C118.577 79.7245 117.382 82 110.873 82H67.7796C65.4906 82 63.6674 81.2099 62.3845 79.9067C61.4392 78.9479 60.7775 77.6853 60.5074 76.1795C59.1637 78.2457 58.2251 79.711 58.2184 79.7245C58.2184 79.7245 57.0165 82 50.5072 82H7.41409C5.12507 82 3.30187 81.2099 2.02569 79.9067C0.76301 78.6238 0 76.8075 0 74.5725C0 66.3347 0 39.528 0 39.582C0 39.582 0.0067919 37.1039 1.55982 34.5988C2.88327 32.4516 13.1467 14.6727 13.9435 13.4978C15.5573 11.1278 19.4534 9.87862 22.9173 9.87862C26.3813 9.87862 50.6963 10.0002 56.0644 10.0002C61.6485 10.0002 64.9032 11.8368 66.9086 13.9638C68.8803 16.0638 69.6702 18.6566 69.9808 20.8173C72.1551 17.0968 73.985 13.9705 74.3023 13.4978C75.9161 11.1278 79.819 9.87862 83.2829 9.87862C86.7469 9.87862 111.055 10.0002 116.43 10.0002C122.014 10.0002 125.269 11.8368 127.274 13.9638C128.496 15.267 129.266 16.7592 129.745 18.2245ZM51.8374 44.2951C51.8374 43.9845 51.7159 43.6874 51.4998 43.4713C51.2837 43.2553 50.9867 43.1337 50.6828 43.1337C45.3822 43.1472 23.7479 43.2012 23.7479 43.2012C19.6965 43.2012 15.5438 41.2093 15.5438 37.185C15.5438 35.821 15.4358 23.7614 15.4358 23.3428C15.4358 16.6377 19.3724 13.8287 23.8627 13.8287H56.8949C66.679 13.8287 66.6588 22.3703 66.6588 24.9497C66.6588 26.6243 66.9828 28.8729 60.5479 28.8729C54.113 28.8729 53.4647 27.914 53.4647 27.151C53.4647 26.388 52.9448 25.9626 52.4181 25.9626C51.8914 25.9626 36.3139 25.9828 31.3915 25.9828C31.0269 25.9828 30.6825 26.1314 30.4191 26.388C30.1626 26.6446 30.0208 26.9957 30.0208 27.3603C30.0208 28.0761 30.0208 29.4873 30.0208 30.203C30.0208 30.5677 30.1626 30.9121 30.4191 31.1686C30.6825 31.432 31.0269 31.5738 31.3915 31.5738C37.2728 31.5738 60.0144 31.5738 60.0144 31.5738C64.0591 31.5738 66.6588 33.5657 66.6588 37.5901V55.7943C66.6588 59.3662 63.8903 61.4797 59.4 61.4797H24.5716C18.0151 61.4797 15.5438 57.6444 15.5438 52.857V48.7516C15.5438 47.8738 16.3001 45.9224 22.735 45.9224C29.17 45.9224 29.4738 46.7934 29.8317 47.5024C30.1828 48.1979 30.723 48.7516 31.3915 48.7516C32.06 48.7516 46.1453 48.7583 50.6828 48.7583C50.9867 48.7583 51.2837 48.6368 51.4998 48.4207C51.7159 48.2047 51.8374 47.9076 51.8374 47.597C51.8374 46.6314 51.8374 45.2607 51.8374 44.2951ZM112.203 44.2951C112.203 43.9845 112.081 43.6874 111.865 43.4713C111.643 43.2553 111.352 43.1337 111.042 43.1337C105.741 43.1472 84.1067 43.2012 84.1067 43.2012C80.0621 43.2012 75.9094 41.2093 75.9094 37.185C75.9094 35.821 75.8013 23.7614 75.8013 23.3428C75.8013 16.6377 79.738 13.8287 84.2283 13.8287H117.254C127.038 13.8287 127.024 22.3703 127.024 24.9497C127.024 26.6243 127.348 28.8729 120.907 28.8729C114.472 28.8729 113.824 27.914 113.824 27.151C113.824 26.388 113.31 25.9626 112.784 25.9626C112.257 25.9626 96.6794 25.9828 91.757 25.9828C91.3924 25.9828 91.0413 26.1314 90.7847 26.388C90.5281 26.6446 90.3796 26.9957 90.3796 27.3603C90.3796 28.0761 90.3796 29.4873 90.3796 30.203C90.3796 30.5677 90.5281 30.9121 90.7847 31.1686C91.0413 31.432 91.3924 31.5738 91.757 31.5738C97.6383 31.5738 120.38 31.5738 120.38 31.5738C124.425 31.5738 127.024 33.5657 127.024 37.5901V55.7943C127.024 59.3662 124.249 61.4797 119.759 61.4797H84.9305C78.3807 61.4797 75.9094 57.6444 75.9094 52.857V48.7516C75.9094 47.8738 76.6657 45.9224 83.1006 45.9224C89.5355 45.9224 89.8394 46.7934 90.1905 47.5024C90.5416 48.1979 91.0885 48.7516 91.757 48.7516C92.4255 48.7516 106.511 48.7583 111.042 48.7583C111.352 48.7583 111.649 48.6368 111.865 48.4207C112.081 48.2047 112.203 47.9076 112.203 47.597C112.203 46.6314 112.203 45.2607 112.203 44.2951ZM141.002 13.7207L140.914 7.36003C140.914 5.79349 141.022 4.30121 148.085 4.30121C155.053 4.30121 155.742 5.86104 155.742 7.29928L155.762 13.7207L161.204 13.6262C162.778 13.6262 163.872 13.302 163.872 19.7437C163.872 25.5034 162.906 26.199 161.657 26.2867V26.2935H155.762V46.0305C155.762 48.6099 157.221 48.6233 157.221 48.6233L159.976 48.5423C161.542 48.5423 162.636 48.2115 162.636 54.6532C162.636 61.0881 161.441 61.2029 159.976 61.2029C159.976 61.2029 147.41 61.2029 144.641 61.2029C140.556 61.2029 141.002 58.1373 141.002 56.2669V26.2935L138.888 26.3002C137.322 26.3002 136.228 26.6243 136.228 20.1894C136.228 13.7477 137.423 13.6329 138.888 13.6329L141.002 13.7207Z" fill="#E27152"/>
</svg>
