<svg width="388" height="154" viewBox="0 0 388 154" fill="none" xmlns="http://www.w3.org/2000/svg">
<path fill-rule="evenodd" clip-rule="evenodd" d="M52.8858 121.935C53.0272 121.726 53.0419 121.457 52.924 121.233C52.806 121.012 52.5747 120.874 52.3228 120.874C46.9881 120.874 26.2042 120.874 12.4889 120.874C9.17459 120.874 5.99644 119.557 3.65433 117.211C1.3119 114.866 -0.00287925 111.687 4.73454e-06 108.374C0.0141042 91.1114 0.0390994 60.9097 0.0477513 50.3896C0.049674 47.9382 0.692483 45.5317 1.91209 43.404C6.31112 35.739 17.4109 16.3939 23.1911 6.31917C25.4335 2.40978 29.5951 -1.24476e-06 34.1009 -1.24476e-06H163.223C165.94 -1.24476e-06 168.443 1.47732 169.76 3.8518C171.077 6.22948 171 9.13261 169.559 11.4366C164.766 19.0984 158.784 28.6636 155.673 33.6369C155.25 34.313 155.227 35.1654 155.614 35.864C156.001 36.5625 156.736 36.9951 157.533 36.9951C164.43 36.9951 178.874 36.9951 188.993 36.9951C195.072 36.9951 200 41.9235 200 48.0023V103.631C200 109.848 198.425 115.965 195.421 121.406C191.637 128.264 185.497 137.979 181.625 144.997C178.594 150.489 172.818 153.899 166.545 153.899H45.3606C42.5833 153.899 40.0332 152.364 38.7325 149.909C37.4319 147.458 37.5934 144.484 39.152 142.187C44.4351 134.397 50.7776 125.043 52.8858 121.935Z" fill="#E27152"/>
<path fill-rule="evenodd" clip-rule="evenodd" d="M71.5628 116.099C69.0284 116.099 66.6527 117.333 65.1924 119.403C61.1651 125.117 52.9336 136.794 48.7909 142.671C48.3067 143.36 48.2458 144.257 48.6326 145.003C49.0194 145.75 49.7894 146.218 50.6293 146.218C69.18 146.218 141.148 146.218 163.744 146.218C167.909 146.218 171.756 143.991 173.832 140.379C176.789 135.236 181.869 127.76 184.914 122.463C185.67 121.15 185.668 119.531 184.908 118.221C184.149 116.907 182.748 116.099 181.232 116.099C158.387 116.099 89.0558 116.099 71.5628 116.099Z" fill="#FFFBF9"/>
<path fill-rule="evenodd" clip-rule="evenodd" d="M39.6687 83.7059C35.4084 83.7187 31.3897 85.6863 28.7656 89.0445C25.0203 93.8351 19.4875 100.914 15.3788 106.169C14.3553 107.476 14.1682 109.255 14.8965 110.748C15.6246 112.244 17.1412 113.19 18.8031 113.19H57.9012C59.2817 110.277 62.2179 108.418 65.4428 108.418C80.9055 108.418 125.939 108.418 141.006 108.418C144.097 108.418 146.966 106.81 148.58 104.173C151.448 99.4909 156.03 92.0086 158.86 87.3846C159.368 86.5546 159.387 85.5164 158.91 84.6704C158.434 83.8212 157.536 83.2989 156.564 83.3021C136.906 83.3694 62.5566 83.6258 39.6687 83.7059Z" fill="#FFFBF9"/>
<path fill-rule="evenodd" clip-rule="evenodd" d="M159.763 102.173C158.979 103.432 158.94 105.019 159.66 106.316C160.381 107.614 161.748 108.419 163.232 108.419H185.159C186.851 108.419 188.473 107.746 189.67 106.55C190.866 105.352 191.538 103.731 191.538 102.039C191.538 89.7817 191.538 63.0823 191.538 50.928C191.538 47.4736 188.739 44.6762 185.286 44.6762C165.266 44.6762 102.891 44.6762 83.0013 44.6762C79.165 44.6762 75.5946 46.6373 73.5367 49.8738C69.9081 55.5841 65.684 64.6846 62.111 70.3051C61.4763 71.3017 61.4359 72.5674 62.0056 73.6057C62.5751 74.6439 63.6646 75.2881 64.8479 75.2881H161.971C164.901 75.2881 167.6 76.8774 169.023 79.4377C170.446 81.9981 170.369 85.1288 168.821 87.6187C165.736 92.5759 162.314 98.0747 159.763 102.173Z" fill="#FFFBF9"/>
<path fill-rule="evenodd" clip-rule="evenodd" d="M141.903 36.995C142.742 36.995 143.525 36.5689 143.985 35.8671C146.409 32.1532 154.237 20.1654 158.514 13.6156C159.082 12.7472 159.127 11.6352 158.634 10.7252C158.139 9.81191 157.185 9.24471 156.148 9.24471C137.3 9.24471 72.4656 9.24471 45.4949 9.24471C42.3341 9.24471 39.303 10.4976 37.0679 12.7343C34.8332 14.9678 33.5773 17.9992 33.5773 21.1619C33.5773 33.0247 33.5773 51.1682 33.5773 63.3066C33.5773 66.6264 34.9367 69.7987 37.3387 72.0899C39.7407 74.3811 42.9756 75.5859 46.2909 75.4289C46.2915 75.4289 47.8527 75.4289 47.8527 75.4289C47.8938 75.0924 60.4657 53.3888 67.4045 42.7469C69.746 39.158 73.7419 36.995 78.0278 36.995C94.2329 36.995 134.078 36.995 141.903 36.995Z" fill="#FFFBF9"/>
<path d="M269.189 122L246 52.1351H265.641L277.806 91.3865C278.566 93.7577 279.242 96.2135 279.833 98.7541C280.509 101.295 280.932 103.666 281.101 105.868C281.27 103.666 281.65 101.295 282.241 98.7541C282.832 96.2135 283.466 93.8 284.142 91.5135L296.053 52.1351H315.948L293.012 122H269.189Z" fill="#E27152"/>
<path d="M327.176 122V104.978L362.276 70.0459C365.825 66.4892 367.599 62.2126 367.599 57.2162C367.599 53.7441 366.543 50.8649 364.431 48.5784C362.403 46.2919 359.7 45.1486 356.321 45.1486C352.857 45.1486 350.027 46.3342 347.831 48.7054C345.719 51.0766 344.663 54.1252 344.663 57.8514H325.655C325.655 51.9234 326.965 46.7577 329.584 42.3541C332.287 37.8658 335.962 34.3514 340.608 31.8108C345.339 29.2703 350.788 28 356.954 28C362.952 28 368.19 29.1856 372.667 31.5568C377.145 33.8432 380.65 37.1036 383.185 41.3378C385.719 45.4874 386.986 50.3144 386.986 55.8189C386.986 60.7306 385.93 65.5153 383.818 70.173C381.706 74.7459 378.285 79.2766 373.554 83.7649L351.506 104.851H388V122H327.176Z" fill="#E27152"/>
</svg>
