<svg width="15" height="14" viewBox="0 0 15 14" fill="none" xmlns="http://www.w3.org/2000/svg">
<path d="M14.2109 5.34938L9.90526 4.72255L7.91804 0.698496C7.85672 0.573264 7.72944 0.493805 7.58985 0.493805C7.45036 0.493805 7.32308 0.573264 7.26176 0.698496L5.26211 4.72255L0.950066 5.34159C0.843078 5.35702 0.745807 5.41198 0.677359 5.49554C0.608911 5.5792 0.574256 5.68544 0.580411 5.79328C0.586457 5.90124 0.632771 6.00293 0.710179 6.07828L3.83656 9.12589L3.09521 13.4935C3.07891 13.5909 3.09963 13.6908 3.15329 13.7738C3.20684 13.8567 3.28954 13.9166 3.38497 13.9418C3.48041 13.9669 3.58189 13.9556 3.66934 13.9099L7.5834 11.8483L11.5052 13.9099C11.5924 13.9528 11.6923 13.9622 11.7859 13.9362C11.8795 13.9102 11.9603 13.8509 12.013 13.7692C12.0657 13.6876 12.0867 13.5895 12.0717 13.4935L11.3303 9.1259L14.4506 6.08464C14.5274 6.00907 14.5732 5.9077 14.5791 5.80017C14.5849 5.69264 14.5504 5.58673 14.4822 5.50339C14.4141 5.42005 14.3173 5.3651 14.2107 5.34944L14.2109 5.34938Z" fill="white"/>
</svg>
