<svg height="300" viewBox="0 0 230 230" width="300"  xml:space="preserve" xmlns="http://www.w3.org/2000/svg" xmlns:xlink="http://www.w3.org/1999/xlink"><clipPath id="a"><path clip-rule="evenodd" d="m602.08 800.1h631.21v-810h-631.21z"/></clipPath><clipPath id="b"><path d="m0 792h1224v-791.94h-1224z"/></clipPath><g transform="matrix(1.3333333 0 0 -1.3333333 -197.38829 422.91219)"><g clip-path="url(#a)"><g clip-path="url(#b)"><text fill="none" font-family="BikiniBottom" font-size="12.5047" stroke="#02a0bc" stroke-width=".5" transform="matrix(1 0 0 -1 386.2351 585.4679)"><tspan x="0 9.97875 17.644133 25.171961 29.311016" y="0">Don’t</tspan><tspan x="4.164065 10.954117 14.542966 22.208347 30.799076" y="14.067787">flop </tspan><tspan x="-12.879841 -5.8522 2.113294 8.865832 15.143191 21.895729 28.92337 34.562992 41.565624 47.842983" y="28.135574">character </tspan><tspan x="-7.865456 -1.112918 6.414911 11.429296 21.345524 29.010904 35.288265" y="42.203362">artwork</tspan></text></g></g><g transform="matrix(.416955 0 0 .416955 270.26834 240.03586)"><path d="m0 0c-2.354 1.375-11.436 4.893-13.611 5.365.294.035 2.913-3.664 2.807-6.949-.083-2.553-.525-5.783 1.356-7.578 6.328-6.043 2.572-9.864 1.334-11.059-.982-.953-2.199-1.135-3.538-1.18-2.153-.076-6.592 2.547-6.541 2.881-.271-1.777.112-3.584.557-5.299.405-1.56.752-3.218 1.605-4.605.49-.793.926-1.479 1.189-2.387.58-1.996-1.142-3.574-2.648-4.361-1.636-.857-3.196-1.795-6.31-.623-3.097-.721-6-.703-7.697 2.047-1.03-.178-1.616.133-2.042.365-6.937 5.563-6.183 15.713-5.398 23.959 1.18 5.889 2.749 11.582 6.609 16.361.983 5.432-.391 11.057-.654 16.619-.85 8.836-2.027 17.28-2.617 26.376-2.879 2.158-6.937 1.896-8.965 5.365-2.356 6.873.195 14.006 1.374 20.549 1.374 5.757 3.207 11.256 6.937 16.031.327 1.898-2.094 3.076-3.01 4.713-2.422 3.207-3.207 7.853-2.357 11.65 0 7.066-8.637 10.535-11.582 16.62-1.834 6.61 1.898 13.284-.982 19.764-4.057 6.019-9.292 11.123-12.826 17.276-2.221 3.831-.731 8.347-1.413 12.479-.711 4.305-3.521 7.89-6.071 11.302-2.302 3.082-3.94 6.546-5.863 9.862-4.266 7.35-1.758 16.753 4.167 22.367 1.329 1.258 2.677 1.917 4.339 2.617 3.562 1.499 3.664 2.612 4.16 6.321.477 3.566 1.167 7.182 3.036 10.309 3.6 6.019 11.91 5.561 14.92 12.563 1.834 2.748 5.716 19.414 18.521 23.429 8.901 2.355 16.818-1.441 24.932-2.881 7.199-.326 12.041 4.975 19.174 4.583 9.228-.329 16.885-4.32 26.242-4.386 8.769 2.421 19.042 6.021 28.402 2.356 9.095-3.01 19.631-6.217 29.512-3.338 5.803 2.265 12.167 2.038 18.184.867 2.964-.577 5.849-1.439 8.722-2.358 6.957-2.224 13.451 2.418 20.409 2.276 8.376.786 14.462-4.973 22.903-3.141 5.824 1.768 13.35 2.749 18.847-.26 13.742-9.294 8.115-27.486 5.693-40.705-.928-5.068.711-9.271 2.284-14.053 2.176-6.616 1.462-13.947-.425-20.543-1.845-6.449-4.359-12.767-2.971-19.589 2.741-6.83 2.791-14.603 1.38-21.745-1.77-8.95-6.814-17.918-5.176-27.27 1.897-5.627 2.553-13.153.654-18.976.067-.264.393-.067.459-.328 4.384 1.571 9.161 4.187 14.135 2.487 3.402-2.159 3.991-6.089 4.712-9.686 3.533.555 6.938 2.027 9.776 4.199 4.461 3.413 7.007 9.637 9.552 14.491 3.253 6.209 6.157 12.594 8.906 19.041 1.571 3.681 3.096 7.385 4.615 11.088.918 1.44 1.049 3.206 1.834 4.711-3.535 2.423-8.048 5.367-9.553 9.751-2.488 7.264-1.31 16.491 4.254 22.119 2.681 2.355 5.757 4.777 9.553 3.468 1.899-.72 3.534-2.028 5.365-2.815 2.945 11.911 8.836 23.626 19.437 31.413 3.6 1.832 8.31 3.141 12.302 1.569 1.637-.85 2.16-2.747 2.488-4.384-1.571-9.619-12.76-13.546-16.95-21.988.262-2.16 3.01-2.617 3.6-4.58 1.896-1.768.197-5.758 3.795-6.152 5.548-3.698 2.704-10.413.545-14.956-1.823-3.835-3.59-7.755-6.145-11.17-2.259-3.017-5.335-5.65-8.733-7.295-1.657-.804-3.34-1.274-5.169-1.43-1.107-.096-3.879.094-4.382-1.404-3.993-11.843-9.949-25.913-16.165-38.346-3.863-8.018-7.265-15.771-15.902-17.736-4.057-.719-8.05-1.635-12.107-2.485-.719-5.3-3.927-11.586-9.686-12.894-5.431-2.289-10.995-.85-16.686-.131-.438.014-1.873-6.651-2.045-7.25-.369-1.283-.655-2.469-1.398-3.588-.845-1.271-4.163-3.658-4.213-5.193-.59-17.668-3.01-53.53-3.339-53.727-11.451-.262-22.118-.785-33.309-.785.426-1.408.589-5.58-2.234-8.324-3.964-3.852-10.629-4.324-16.088-5.354-1.309-.26-2.814-.064-3.928-.785-.195-18.518-2.944-35.928-1.897-54.315-.009.182 5.047-3.953 5.529-4.531 1.385-1.66 2.311-3.515 3.471-5.261 2.643 1.504 5.64 3.068 8.641 3.779 3.065.725 6.419.638 9.326-.662 9.397-4.207 9.853-18.676-.137-24.408-4.117-2.366-9.161-4.123-14.266-2.684-3.86 1.244-7.526 3.01-10.993 5.168-1.375-.129-2.422-1.109-3.797-1.371-5.692.129-11.516.783-15.051 5.494-.13 1.898-.719 3.861-.457 5.76-1.702 2.486-2.552 5.431-1.898 8.64.785 4.186 3.599 8.243 7.199 10.535 1.439 6.411.522 12.76.981 19.5-.327 11.911 1.636 23.362 1.833 35.337-3.141.984-6.217 2.226-9.097 3.927-3.747 1.766-3.339 7.069-2.814 7.985-6.217.654-12.958-.59-19.502-.131-7.198-.196-13.611-.328-21.006-.459-.26-.196 3.918-6.106-.915-10.078-9.818-8.065-21.4-7.852-21.531-7.983-.328-17.474-2.159-34.945-.784-52.482 4.385-2.16 6.87-6.94 9.422-10.537 4.123 1.373 8.72 2.078 13.627.277 16.525-9.078 5.646-25.113-1.064-26.779-7.786-2.881-16.031-.262-21.529 5.627-1.505 1.177-2.748 3.793-4.711 1.896-1.636-.521-3.076-1.506-4.842-1.57-4.319 1.506-8.048 4.318-11.517 7.986-.444 2.594-.359 4.324.314 7.178-1.856 2.689-3.526 5.203-1.848 9.4 1.68 4.198 4.868 6.715 8.011 6.522 1.572 3.467 1.702 39.787 1.244 53.726-3.337 1.766-12.319 3.58-15.574 10.207z" transform="translate(-187.552 -103.986)"/><path d="m0 0c6.229-1.842 12.33-4.198 19.069-3.757 6.05.397 11.925 2.226 17.983 2.529 6.22.308 11.885-1.81 17.882-2.986 8.109-1.591 15.98 2.224 24.084 2.504 5.112.178 9.912-1.766 14.903-2.49 6.525-.942 12.998 1.829 19.528 1.485 8.559-.449 12.178-6.672 12.418-14.915.108-3.733-.454-7.438-.847-11.141-.354-3.316-.163-6.754-.8-10.027-.77-3.967.126-7.945.933-11.828 1.413-6.783 1.735-14.556.473-21.387-1.249-6.774-3.722-13.356-2.705-20.35.713-4.89 2.19-10.047 1.753-15.019-.479-5.42-1.836-10.715-3.207-15.965-1.186-4.54-3.053-9.476-2.667-14.236.209-2.594.543-4.909 1.165-7.451.791-3.24 1.724-7.545 1.343-10.882-.392-3.441-2.123-6.617-3.576-9.704-3.026-6.436-3.725-14.188-3.755-21.666-.028-6.928.149-14.456-4.929-19.862-2.797-3.648-7.078-3.486-11.204-2.961-4.958.627-9.724.092-14.52-1.236-6.936-1.92-12.471-1.877-19.482.049-6.739 1.853-14.213 2.211-20.889-.102-6.478-1.508-13.611-3.142-20.548-1.572-8.376 2.681-17.866 4.777-27.027 2.812-4.189-.894-8.421-1.924-12.723-2.041-4.098-.111-7.787 1.149-11.785 1.684-7.409.99-14.811-1.19-22.234-.922-7.454.266-14.052 3.527-21.708 2.85-2.095.132-1.53 1.359-3.559 1.488-2.552 11.977-6.094 32.539-16.94 32.67-1.636-.066-3.076-.658-4.386.453-4.908 5.76-2.665 13.948-7.836 19.576-3.075 4.924-10.143 8.637-9.423 15.574.13 7.46-.196 15.052-4.515 20.876-3.404 5.105-7.33 10.012-8.181 16.164-.916 5.972-1.161 11.369-4.843 17.604-2.86 4.842-6.216 9.488-9.292 14.265-2.355 5.693-.131 11.778 3.469 16.165 2.094 3.01 6.217 3.729 7.394 7.263 1.418 4.255 2.586 9.294 5.222 12.99 2.7 3.783 7.542 5.206 10.721 8.516 3.807 3.966 6.181 9.099 8.858 13.831 2.654 4.689 4.666 10.802 10.571 12.13 7.307 1.641 15.151-2.454 22.543-2.118 5.366-.064 10.471 2.292 16.032 2.683 7.473.527 14.657-2.019 22.031-2.675 7.784-.691 14.527 2.714 22.151 3.136 4.565.254 8.839-.759 13.055-2.004" fill="#fff463" transform="translate(-123.036 164.318)"/><path d="m0 0c-4.879-.84-9.489 1.703-11.976 5.956-1.375 3.141-.892 6.795.196 9.881 5.694 16.12 19.24 10.079 23.232 8.312 7.22-3.317 10.056-20.44-11.452-24.149" fill="#b2b618" transform="translate(-177.604 126.429)"/><path d="m0 0c1.701-1.565 2.724-3.959 2.424-6.258-.764-5.837-7.276-10.843-13.049-10.843-4.923 0-5.683 4.425-4.906 8.327.401 2.018 1.478 3.693 2.606 5.416 4.262 6.51 11.786 4.404 12.925 3.358" fill="#b2b618" transform="translate(-6.191 149.616)"/><path d="m0 0c2.141-3.781 1.831-9.686-2.027-12.892-3.929-3.6-8.704-5.89-14.137-4.843-3.009.195-5.954 2.881-6.937 5.628-.719 4.319.261 8.638 2.814 11.976 4.778 5.997 17.212 5.563 20.287.131" fill="#b2b618" transform="translate(-164.909 146.193)"/><path d="m0 0c1.963-1.635 1.898-4.384 1.57-6.543-1.484-2.969-4.211-5.829-7.465-6.79-1.74-.514-4.51-.999-5.91.437-1.431 1.469-1.696 5.684-.563 7.399 2.682 4.057 7.59 8.704 12.368 5.497" fill="#b2b618" transform="translate(-7.263 148.221)"/><path d="m0 0c6.422-4.84 11.347-11.901 13.709-19.048 2.814-9.358 1.768-20.483-2.224-28.926 3.859-.653 7.918-3.664 8.833-6.282 1.898-4.384-.763-9.478-5.03-13.42-4.261-3.938-20.369-11.698-36.589-12.036 3.991-3.205 15.26-9.762 17.027-10.35-.807-1.614-10.263-2.316-14.117-2.624.223-2.516-.231-18.031-.689-18.356-3.141-.655-15.047-.67-17.338-.67-1.178-.851-4.058-20.616-5.302-28.729-.26-2.815-2.813-4.777-5.235-5.694-16.228-5.628-36.842-3.533-51.5 4.583-11.19 8.177-10.798 21.529-11.256 34.093 0 12.761-.852 25.718.13 38.283-2.487.654-5.301.065-7.526.458-.851.786.721 1.637 1.244 1.898 6.152.392 12.237-.59 16.491-4.844-.262-1.308-3.948 2.64-7.068 1.899-.915-1.244-.393-3.075.131-4.254 7.199-12.76 21.726-14.985 35.011-16.491 18.387-.915 42.181-1.222 60.57 1.658-2.823 2.016-8.671 4.84-12.905 9.075-5.695-.132-14.029 1.439-19.068 3.534-.262.065 0 .392-.328.458 6.676-.393 13.875-1.114 20.943-.588 11.255.195 21.593 3.795 31.214 8.441 9.38 4.907 9.884 13.198 8.377 14.571-2.814 3.732-8.212 4.281-12.704 2.624-15.903-6.217-31.207-15.691-49.529-16.083-1.18.328-3.011-.065-3.6.982 2.683.588 5.562.719 8.309 1.047v.523c-6.215 3.469-12.892 9.096-16.032 15.705-.13 0-10.076-17.625-30.43-18.715-1.176-2.094-3.074-4.711-5.496-5.497-.197.13-.328.327-.458.456 2.355 2.815 5.889 6.152 3.599 10.21-6.742 10.078-22.119 14.463-30.297 11.976-8.4-3.076-6.153-11.649-3.929-13.678.263-1.047-.325-.631-.981-.326-1.833.981-3.163 3.074-3.468 4.712-.458 2.814.195 8.071 5.496 10.993-7.459 10.929-6.413 28.926.982 39.592 2.65 4.712 6.17 7.626 10.456 11.101l-6.503 11.972 5.454 2.784 5.245-11.961c3.24 1.378 9.634 3.019 12.94 3.235l-1.267 12.726 6.338.644v-13.107c2.72-.349 10.49-.717 12.251-1.436l3.278 11.921 6.271-1.578-5.06-12.136c11.176-4.357 16.382-16.848 16.56-16.848 3.39 6.841 10.409 12.291 17.038 15.439l-4.963 12.502 5.849 1.815 3.63-12.504c3.429.806 9.814 2.166 13.108 1.815l.605 13.109 6.051-.403-1.615-13.311c2.622-.805 9.682-3.025 11.294-4.034l6.453 11.495 5.446-3.225z" transform="translate(-38.052 122.705)"/><path d="m0 0c12.499-5.433 19.894-18.062 20.745-31.085.458-12.564-5.039-23.689-15.575-31.215-5.3-3.076-10.733-5.825-17.277-6.02.785 6.02-11.648 20.853-34.007 16.817-.652 0-.283.458-.677.787-6.935 12.237-5.081 30.289 3.928 41.03 12.129 14.463 33.723 13.262 42.863 9.686" fill="#fff" transform="translate(-111.837 126.234)"/><path d="m0 0c5.89-10.077 6.741-25.194.786-35.534-3.273-.916-5.652-1.959-9.424-3.599-3.773-1.64-19.371-9.03-29.84-11.452-2.881-.064-5.956-2.552-8.639-.327-6.74 3.469-13.089 9.685-16.359 16.491 4.646 9.489 5.234 22.315.784 32.066 1.441 4.188 4.844 7.983 8.311 10.993 9.555 8.442 24.737 10.994 36.582 6.283 7.133-2.487 13.873-8.114 17.799-14.921" fill="#fff" transform="translate(-29.512999 110.723)"/><path d="m0 0c.459-1.44.174-7.94-6.282-7.722-1.842.063-3.795 1.113-4.515 3.011-.394 1.831.458 3.207 1.243 4.515 2.29 2.684 7.59 3.86 9.554.196" fill="#b2b618" transform="translate(-172.304 117.791)"/><path d="m0 0c-1.179-1.506-5.234-4.254-6.739.546-.198 1.898 1.44 3.337 2.879 4.253 2.006 1.09 6.827-.983 3.86-4.799" fill="#b2b618" transform="translate(-174.529 113.451)"/><path d="m0 0c-.456-4.253-5.431-6.085-7.852-9.226-4.581-3.076-7.984-7.657-9.424-12.762-4.253-.654-8.377-1.833-11.649-5.038-.196.131-.196.784 0 .981 5.367 10.405 10.275 25.586 24.082 27.943 1.702-.393 3.992.327 4.843-1.898" fill="#fff463" transform="translate(95.478003 106.928)"/><path d="m0 0c2.027-3.861 1.701-9.358-.264-13.153-3.534-5.497-9.292-9.489-16.031-8.18-5.235 1.373-11.126 5.955-12.108 11.65-1.243 5.038.525 9.946 3.6 13.806 4.057 4.32 10.272 5.954 15.901 4.253 3.928-1.048 7.265-4.776 8.902-8.376" transform="translate(-99.925002 96.392002)"/><path d="m0 0c7.11-12.719-2.707-24.28-14.268-23.231-4.875.442-9.881 3.466-12.106 8.31-2.749 5.366-1.899 12.499 1.896 17.144 3.993 4.189 9.295 6.152 15.053 4.975 3.73-1.047 7.419-3.613 9.425-7.198" transform="translate(-53.593001 97.048001)"/><path d="m0 0c2.421-3.993 2.421-10.406-.59-14.135-3.336-4.581-8.376-6.611-13.872-5.498-4.057 1.114-8.836 4.384-9.882 8.835-1.245 4.056-.524 8.899 1.897 12.238 3.534 3.664 8.311 5.954 13.679 4.71 3.403-.981 6.804-2.813 8.768-6.15" fill="#3cc1f3" transform="translate(-101.955 96.720002)"/><path d="m0 0c2.616-3.207 4.058-6.872 3.601-11.321-.721-4.189-4.089-9.255-8.444-10.078-13.022-2.465-18.93 8.354-17.473 14.658.961 4.144 3.361 7.744 6.611 9.424 4.992 2.58 11.844 1.439 15.705-2.683" fill="#3cc1f3" transform="translate(-57.194001 98.159999)"/><path d="m0 0c3.403-4.908-.396-15.095-9.685-12.892-4.69 1.114-9.381 5.04-5.038 13.22 1.939 3.658 10.402 5.903 14.723-.328" transform="translate(-104.638 94.362999)"/><path d="m0 0c1.178-2.815 1.309-6.543-.653-9.096-1.376-2.095-3.469-3.142-5.629-3.73-3.926-.263-7.656 1.701-9.292 5.298-.851 2.749-1.161 6.204.982 8.508 6.608 7.112 13.021 1.376 14.592-.98" transform="translate(-58.895998 93.252001)"/><path d="m0 0c.799-1.867-4.157-1.368-5.203-1.746-.805-.29-9.702-3.511-8.801-4.863-1.046 1.571-2.159 3.665-3.273 5.498.589 2.094 2.879 2.748 4.386 3.925 4.056 1.244 10.731 2.225 12.891-2.814" fill="#fff463" transform="translate(83.698998 77.282997)"/><path d="m0 0c0-2.094-1.44-3.927-3.404-4.515-4.645-1.309-8.507 2.291-11.648 5.629-.59-.787.066-1.835.327-2.684 2.225-3.796 6.021-5.758 10.208-5.956.983 0 1.703.655 2.815.459.851-3.076 1.048-6.938 4.712-8.442 2.813-1.112 5.824.261 7.852 2.617 2.619 3.011 4.45 6.283 5.825 9.752-.392 1.046-1.441.13-1.441-.459-2.421-3.468-3.926-8.835-8.768-9.751-1.571.263-3.273 0-4.384 1.243-2.618 3.404-.654 7.461.785 10.733 3.599 3.795 8.376 7.134 13.938 6.087 1.898-.654 3.926-1.637 5.039-3.599.982-2.488-.588-4.778-1.44-6.938-1.701-3.927-3.991-7.591-6.544-11.125-2.012-2.786-4.091-5.351-7.134-7.09-1.683-.965-3.592-1.751-5.515-2.067-.628-.104-4.958.51-4.955.519-2.42-4.384-12.859-35.371-22.184-47.772-2.814-3.744-4.09-7.426-8.657-9.033-2.786-.984-5.624-1.928-8.5-2.6-2.834-.662-5.729-.652-8.561-1.193-1.375-.262-3.271-.197-4.711-.654-.981-.131-.785 1.048-.785 1.701.851 1.701-.982 5.498 2.357 5.041 8.637 1.113 18.191 1.634 22.772 10.861 8.703 14.529 15.836 29.777 21.203 45.678.066 3.599-4.057 3.73-5.694 6.609-4.516 4.057-5.105 10.47-3.731 16.165 1.768 4.45 3.928 11.123 9.883 11.451 5.104-.915 9.03-5.954 10.34-10.667" fill="#fff463" transform="translate(67.340002 68.449)"/><path d="m0 0c-.116-.287-.402-.744-.803-.687-.915-.115-1.774.114-2.175.803.344 1.831 2.462.742 2.978-.116" fill="#ef5240" transform="translate(-151.64 69.589001)"/><path d="m0 0c-.066-.459-.263-.851-.655-1.114-1.179.131-2.617.197-3.011 1.572.264.719 1.114.522 1.57.916.917.065 1.638-.719 2.096-1.374" fill="#ef5240" transform="translate(-135.198 65.504999)"/><path d="m0 0c-.066-.654-.459-1.243-1.243-1.048-.851.065-1.898.262-2.096 1.244-.13.588.198 1.047.656 1.374 1.177.196 2.094-.59 2.683-1.57" fill="#ef5240" transform="translate(-144.164 63.411003)"/><path d="m0 0c-.131-1.439-.917-2.944-2.356-3.598-1.897-1.441-.393 1.176-.654 1.701 1.046.654 1.701 3.729 3.01 1.897" transform="translate(63.282003 58.567999)"/><path d="m0 0c.195-.196.392-.329.327-.655-.327-5.955-.132-11.715.13-17.407.525-.785 1.243-.851 1.898-1.309 7.461 0 14.528-.065 21.791 1.309.263.262.72.524.787.916-.198 5.17-.198 11.059 0 15.836 2.026.851 4.711.459 6.936.328 1.112-5.628-1.59-11.559-.018-17.056.263-.46 1.98-.613 2.372-.809-.774.388-3.313-12.013-3.431-13.132-.246-2.342-.384-4.698-.461-7.051-.091-2.772.438-8.459-3.174-9.528-4.582 8.641-13.545 12.762-22.642 13.678-3.6.065-6.348-.195-9.097-1.439-5.104 2.617-14.463 7.394-26.046 4.711-2.323 7.427-1.57 35.664-1.897 44.434 9.097-8.507 20.614-11.125 32.525-12.826" fill="#692d31" transform="translate(-112.294 29.381999)"/><path d="m0 0c5.76.653 11.78.653 17.538 1.243.197-.132.459-.327.329-.59.326-4.71-.005-11.208.388-15.722-6.217-.526-12.71.106-18.926.041z" fill="#fff" transform="translate(-77.415997 28.400001)"/><path d="m0 0c-6.478-.851-13.219-.327-19.762-.458-.066 5.3-.066 11.191.589 16.165 6.217-.459 12.76-.983 18.847-.786z" fill="#fff" transform="translate(-89.849001 13.479002)"/><path d="m0 0c5.269-12.827-9.814-19.174-15.182-19.174-10.143-.687-8.87 9.451-7.852 13.023 5.235 18.354 20.885 11.388 23.034 6.151" fill="#b2b618" transform="translate(-12.761004 18.845999)"/><path d="m0 0c1.765-5.889-1.048-11.06-6.938-14.265-3.382-1.842-19.469-6.774-10.666 13.611 2.814 4.808 5.889 5.366 10.011 5.038 3.011-.326 6.087-1.309 7.593-4.384" fill="#b2b618" transform="translate(-13.806001 17.733001)"/><path d="m0 0c1.036-2.715 3.142-6.936-1.766-6.151 0 0-1.963-.066-2.16.916-.138.694.066 2.487-.198 2.682-3.728-1.963-3.858-6.279-4.055-10.207 1.046-3.338.786-7.33 3.795-9.75 1.113.916-1.766 3.926 1.245 3.664 1.568.197 4.907.393 5.038.262-.655-2.617-1.114-5.76-3.927-7.069-6.021-2.093-13.219-2.486-19.633-2.029-.914 7.92-.85 17.016 2.945 23.756 4.909 3.664 9.947 7.657 16.491 6.872.917-.917 1.505-1.964 2.225-2.946" fill="#fff" transform="translate(15.705997 -2.816001)"/><path d="m0 0c.915.718-.393 1.244-.655 1.896-.719.852-1.767 1.504-2.159 2.488 7.525 1.702 15.508.262 20.68-5.302 2.093-2.289 3.533-4.842 4.709-7.395-12.497-2.748-26.109-.521-38.15 1.701-5.366 1.506-11.321 5.432-13.48 10.996-.067 1.309-1.573 2.225-.788 3.598 13.253 3.404 25.85-5.496 29.843-7.982" fill="#f6a3a5" transform="translate(-112.294 -12.892002)"/><path d="m0 0c.556-2.697-1.832-5.367-4.581-6.738-1.243-.787-4.924-1.687-5.758.979-.638 2.732 4.515 8.051 7.067 7.984 1.374-.035 2.682-.916 3.272-2.225" fill="#b2b618" transform="translate(-160.197 -8.050998)"/><path d="m0 0c-.326-1.896-6.953-6.183-6.282-3.466.885 3.335 2.486 4.711 4.713 5.625 1.31.328 2.224-.735 1.569-2.159" fill="#b2b618" transform="translate(-162.423 -9.883001)"/><path d="m0 0c1.965-3.597-1.537-14.658-12.892-13.347-1.505.588-3.271 1.83-3.795 3.467-1.309 2.748.392 5.431.982 7.984 2.813 3.797 6.937 6.805 11.78 5.498 1.373-1.113 3.73-1.375 3.925-3.602" fill="#b2b618" transform="translate(-21.988 -13.680001)"/><path d="m0 0c4.122-4.321-4.711-16.754-11.908-10.668-.917 2.355-1.115 5.824.784 7.984 2.486 3.467 7.919 6.041 11.124 2.684" fill="#b2b618" transform="translate(-24.540002 -12.892002)"/><path d="m0 0c1.962-7.395 3.272-15.508 3.794-23.1-2.682-3.664-6.805-3.729-10.665-4.385-5.171.262-10.406 1.309-14.594 4.188-1.374 7.002.981 13.679 1.57 20.418 1.048 5.367 2.813 10.799 7.983 14.134 1.769.721 3.863.2 5.368-.783 3.27-3.01 4.972-6.742 6.544-10.472" fill="#fff" transform="translate(-207.968 -24.804)"/><path d="m0 0c1.374-1.766 3.453-6.545-1.702-12.76-3.042-3.67-8.246-5.564-13.087-4.385-2.423.918-3.535 3.534-3.599 5.953.131 5.434 2.747 10.407 7.72 13.09 3.208 1.766 8.312 1.635 10.668-1.898" fill="#b2b618" transform="translate(-151.559 -22.774997)"/><path d="m0 0c4.008-4.125-1.243-12.236-5.038-13.48-7.886-3.566-8.836.457-8.966.457-1.112 4.582-.197 9.49 3.011 12.893 2.486 2.748 8.441 3.4 10.993.13" fill="#b2b618" transform="translate(-153.261 -23.887002)"/><path d="m0 0c10.536.326 20.614-2.422 31.085-1.832 5.234.392 10.142 2.289 13.48 6.543.327.132.457-.131.655-.262-3.012-6.022-7.236-9.115-15.445-9.422-4.334-.164-22.411 2.932-38.152 1.57-4.974-.394-10.339 6.413-13.348 9.096-2.815 5.301 2.289.328 3.336-.654 5.106-4.059 11.453-6.612 18.389-5.039" fill="#f7a39d" transform="translate(-120.279 -32.394)"/><path d="m0 0c.915-1.506.524-12.827.131-16.952-10.668 1.44-21.006 3.733-31.214 6.219-.132 2.094-.459 3.99-.329 6.152 2.879 1.374 6.675 2.418 8.181 5.628-.197.718-.394 1.765.131 2.355 6.823-.855 11.256 2.553 17.276-.131 3.168-.971 4.123-1.506 5.824-3.271" fill="#b2e2f9" transform="translate(-178.717 -49.931)"/><path d="m0 0c-.634-2.32-.075-5.066-.187-7.474-.112-2.44.473-5.885-.099-8.186-.067-.263-.392 0-.459-.263-21.137-.588-40.705-.981-61.579-.327-1.308.131-3.076.262-4.517.59-.851 1.44-.915 3.141-1.766 4.58 1.701 3.207 3.861 6.348 5.169 9.555.198.393.459 0 .656 0 5.038-3.6 9.161-9.293 15.247-10.342 3.402 1.18 6.085 4.321 9.228 6.088 2.486 1.375 4.58 3.533 6.936 5.039 1.406.899 5.001.85 6.717 1.252 2.33.551 4.647 1.164 7.016 1.537 3.031.479 6.082.559 9.043-.334 2.913-.877 5.485-2.05 8.595-1.715" fill="#fff" transform="translate(-17.642998 -50.173998)"/><path d="m0 0c2.859-.131 4.603-.676 7.657-1.111 0-.198 0-.395 0-.655-4.319-3.402-13.72-10.513-14.179-10.252-7.526 2.422-15.139 6.52-22.402 9.664.916.848 2.945.26 4.253.784 7.461 2.488 16.753 3.14 24.671 1.57" fill="#fff" transform="translate(-111.51 -49.148002)"/><path d="m0 0c-3.402-2.814-7.198-5.955-10.994-8.508-5.497 1.571-9.488 6.871-14.266 10.209 2.75 1.7 6.609.721 10.013 1.44 5.234-.654 10.143-2.162 15.247-3.141" fill="#fff" transform="translate(-54.053 -51.370998)"/><path d="m0 0c10.208-4.647 20.658-10.493 31.715-12.981 1.158 0 10.101 7.09 14.943 10.951 2.356-2.553 3.404-6.348 6.741-8.638-.458-2.223-2.159-3.926-3.337-5.823-25.392-.719-51.567-.59-77.089-.133-.328.133-.065 11.192-.328 15.641 6.022.983 11.649 2.619 17.93 2.881 3.404-.523 6.348-.656 9.425-1.898" fill="#fff" transform="translate(-149.203 -50.259)"/><path d="m0 0c-1.641-4.906-3.103-6.924-6.509-7.086-4.812-.234-6.672 4.668-8.543 8.787 5.235.326 10.732-.197 15.706 1.44.522-.983-.589-2.096-.654-3.141" fill="#eb1c22" transform="translate(-84.350997 -53.072001)"/><path d="m0 0c.327-10.599 1.177-21.398 1.702-32.129.26-2.619 1.962-4.781 2.095-7.267 5.102-3.662 8.505-8.703 7.328-15.051-.656-5.299 9.03-7.066 4.713-12.76-.852-1.636-3.079-1.439-4.384-.785-2.882 1.373-3.143 4.842-5.826 6.022-3.131-3.801-1.693-8.862.071-12.914.239-.551 1.42-2.866 1.946-3.493.454-.539.783-1.66.339-2.312-.741-1.088-2.776-1.75-4.037-1.602-1.47.174-2.636 1.307-3.575 2.371-3.834 4.34-3.399 12.215-3.645 12.908-.392 1.114-1.571.592-1.766-.326 0-5.498.654-11.125 4.907-15.052 0-.85-1.504-.457-2.094-.326-6.085 2.747-4.266 13.199-6.413 14.134-1.337.608-.765-3.392-.768-3.922-.007-.875.963-6.084 1.335-6.677-2.889 3.052-2.796 6.093-3.248 8.275-.49 2.369-.585 4.793-.41 7.203.355 4.832 1.569 9.674 3.429 14.143.514 1.238 1.087 2.451 1.691 3.646.305.602.617 1.199.934 1.791.234.44.943 1.299.965 1.783.589 14.266-1.44 28.86-2.488 42.862 2.355-.196 4.777-.326 7.199-.522" fill="#fff463" transform="translate(-212.811 -55.167997)"/><path d="m0 0c1.929-5.775 3.892-11.748 6.609-17.08-.262-1.865-7.199-10.732-8.311-12.107-4.057 2.814-10.855 11.281-10.862 11.55-.01.305 5.954 11.748 7.852 17.637 1.105-.426 3.791-.932 4.712 0" fill="#eb1c22" transform="translate(-88.932002 -61.579999)"/><path d="m0 0c7.033-.246 15.23-.082 21.709-.082 3.664-4.58 8.18-9.225 13.021-12.434.199-.262.526.067.788.131 4.253 3.207 9.995 12.451 10.454 12.713 6.543.262 21.185.213 21.185.734l.083 7.199c-.263 1.244-16.868-.097-23.673-.031l-1.309 3.467c11.582 1.769 24.473.459 35.664 1.049 9.488-.067 20.091.26 29.514-.262-.197-10.209-.654-20.549-1.374-30.367-.197-.129-.327-.262-.459-.457-11.779-1.114-23.361-1.049-35.534-1.244-39.394-1.178-81.67-2.289-121.064-2.028-10.274 3.664-20.744 7.002-30.757 11.321-1.636 8.9-1.374 18.783-2.095 27.943 10.472-1.506 20.616-3.795 30.823-5.955.524-.262 1.047-22.117 1.113-31.738.326-.26 1.505-.26 1.701 0-.392 11.127-.521 20.025-.459 31.412.459.326 66.751 1.765 76.437.457l-1.377-3.141c-7.459-1.57-16.687-.59-24.473-1.113z" fill="#b26e2d" transform="translate(-125.693 -80.935002)"/><path d="m0 0c-9.983 3.541-20.133 6.806-29.85 10.998-1.636 8.9-1.374 18.781-2.094 27.945 10.471-1.508 20.615-3.797 30.823-5.957.523-.262 1.047-22.119 1.112-31.738z" fill="#80441d" transform="translate(-177.595 -102.222)"/><path d="m0 0c5.889-1.035 14.505-2.836 19.193-4.363v-7.58c-6.151 1.113-12.574 2.912-18.595 4.287z" transform="translate(-204.902 -66.292997)"/><path d="m0 0c-5.105.918-10.352 2.227-15.325 3.6l-.381 4.144c5.3-1.047 10.688-1.908 15.761-3.217z" transform="translate(-187.398 -76.328001)"/><path d="m0 0c3.601.657 26.014.817 28.222.165l-.196-7.215c-1.359-.801-26.226-1.293-28.19-.639z" transform="translate(-51.256 -72.592)"/><path d="m0 0c8.508-.521 21.236-.361 29.611-.164l-.163-7.115c-3.926.195-24.196.113-29.04.177z" transform="translate(-165.776 -73.328001)"/><path d="m0 0c3.926.13 20.205.113 20.727.113.524-.981.329-2.485.131-3.598-6.413-.592-12.956-.262-19.761-.326z" transform="translate(-81.194002 -74.718)"/><path d="m0 0c5.956.719 22.546.393 24.705.327v-3.354c-4.451-1.178-21.022-1.096-24.622-.572z" transform="translate(-49.701998 -74.881003)"/><path d="m0 0c.235.293 17.801.492 20.614.557l-1.57-3.598c-6.348-.59-12.908-.394-19.124-.195z" transform="translate(-123.159 -75.619003)"/><path d="m0 0c-.125-.655.308-3.268 0-4.035-.186-.46-17.019.246-25.986.246-.066.916-.639 2.754-.246 3.736 7.46.916 25.183-.143 26.232.053" transform="translate(-137.663 -75.019003)"/><path d="m0 0c-3.232-4.537-14.116-5.088-18.291-5.238-6.027-.219-14.859-.307-19.268 4.682-1.226 1.324-1.962 3.697.784 5.496 12.239.328 24.145.59 36.774.918.92.023.911-3.584.801-4.082-.145-.653-.421-1.243-.8-1.776" fill="#b26e2d" transform="translate(-54.188 -110.17)"/><path d="m0 0c11.713.13 23.952.261 35.01.457.786-3.141 2.57-6.155-.093-8.795-4.954-4.907-15.071-5.877-21.576-5.694-3.933.11-7.878.887-11.623 2.073-2.112.668-9.127 2.74-10.031 5.023-1.11 2.812-.784 6.086.656 8.637 2.289-.721 7.591-1.44 7.657-1.701" fill="#b26e2d" transform="translate(-175.444 -106.931)"/><path d="m0 0c-.589-8.508 0-17.28-1.113-25.784-.827-.919-4.828-.642-6.024-.23-.589 4.58.266 9.326.201 14.037.327 5.105.654 10.143.982 15.248.065.131.196.197.326.326 1.899-1.113 8.115 1.373 5.628-3.597" fill="#fff463" transform="translate(-75.714 -121.392)"/><path d="m0 0c.352-.457-1.063-17.568-1.063-25.357-1.702-1.701-4.173-1.16-6.463-.965-.195.131-.393.326-.326.59-.133 9.096.915 17.537.326 26.437 1.876-1.064 6.921-.902 7.526-.705" fill="#fff463" transform="translate(-162.095 -124.127)"/><path d="m0 0c-2.115-.505-4.796-.312-6.367.211.064 1.506-.131 3.534.13 5.17 1.834-.589 4.497-.255 6.329-.322z" fill="#fff" transform="translate(-76.872003 -154.26)"/><path d="m0 0c2.027-.067 4.793-.655 6.494.457l-.115-5.366c-1.717-.816-4.661-.654-6.429 0z" fill="#fff" transform="translate(-169.702 -152.019)"/><path d="m0 0c-2.162-.551-4.784-.643-6.053.322v4.383c1.834-.785 4.516-.459 6.282-.328z" fill="#fff" transform="translate(-77.056001 -160.193)"/><path d="m0 0c2.029-.588 4.662-.652 6.543-.326l.057-4.953c-.287-.352-5.193-.333-6.568.386z" fill="#fff" transform="translate(-169.784 -158.318)"/><path d="m0 0c.59-3.732-.76-7.545.746-10.818-.981-2.028-3.207-1.766-5.17-1.766-.72.459-1.833.785-1.571 1.898-.522 3.467-.326 7.395-.196 10.993 1.361-.815 4.424-.699 6.191-.307" fill="#fff" transform="translate(-76.918001 -162.078)"/><path d="m0 0c-2.115-.505-4.796-.312-6.367.211l.13-1.439c1.834-.785 4.516-.459 6.282-.328z" transform="translate(-76.872003 -154.26)"/><path d="m0 0c-2.162-.551-4.784-.643-6.053.322v-1.9c1.361-.815 4.424-.699 6.191-.307z" transform="translate(-77.056001 -160.193)"/><path d="m0 0c.656-1.375.13-3.209.526-4.715-.396-2.485.587-4.776.914-7.197-.459-1.244-1.504-2.684-2.813-3.141-1.899-.262-3.6.721-5.171 1.701-.328 1.57-.131 3.404-.195 5.039-.197 2.879-.197 6.086 0 8.965 2.157-.457 4.384-1.113 6.739-.652" fill="#fff" transform="translate(-163.208 -165.564)"/><path d="m0 0c-1.717-.816-4.661-.654-6.429 0l-.032-1.39c2.029-.588 4.662-.652 6.543-.326z" transform="translate(-163.323 -156.928)"/><path d="m0 0c-.287-.352-5.193-.333-6.568.386l-.195-1.701c2.157-.457 4.384-1.113 6.739-.652z" transform="translate(-163.184 -163.597)"/><path d="m0 0c.524.85 1.767 1.111 2.355.328 3.078-3.076 7.396-7.135 5.302-11.648.524-1.047-1.636-2.358 0-2.489 2.486 5.172 8.048 7.592 13.22 8.639 4.971-.064 9.618-2.683 11.909-7.068 3.821-10.699-8.996-19.227-18.323-16.227-7.329 2.354-13.089 8.573-20.941 9.617-2.357.065-4.909.917-7.199 1.704-2.814 4.449-1.702 10.794.917 14.919 1.635 1.047 3.402 4.647 5.497 2.358 1.963-1.311 5.301-1.637 7.263-.133" transform="translate(-76.171999 -175.578)"/><path d="m0 0c2.027-.067 4.187 1.439 5.168 3.271 2.094-.849 3.47-3.076 4.908-4.711.918-1.896 2.553-3.468 2.815-5.629-2.03-1.701-3.927-3.664-4.253-6.15.13-.133.196-.197.326-.328 3.991 4.647 9.03 8.967 15.379 7.527 3.664-.851 7.984-3.209 9.095-7.199 2.095-5.17-.523-10.537-4.188-14.135-3.074-2.617-7.459-3.404-11.32-2.488-7.395 1.442-12.369 8.901-18.716 12.826-4.515.328-8.639 3.6-11.452 7.397-1.506 4.056-.329 8.506 2.683 11.451.784.654 1.57 1.375 2.486 1.766 1.898-1.766 3.992-4.188 7.069-3.598" transform="translate(-165.235 -182.318)"/><path d="m0 0c.852-.719.983-2.092.459-3.01-2.028-1.896-4.45-4.056-7.394-3.597-.982.195-1.963.785-2.487 1.765-.132 2.489 1.702 4.777 3.927 5.76 1.896.914 3.86-.131 5.495-.918" transform="translate(-51.828998 -186.115)"/><path d="m0 0c-.262-1.245-1.702-1.965-2.619-2.684-1.176-.521-2.616-1.504-3.795-1.111-1.177.785-.72 2.42-.326 3.469 1.439 1.439 3.467 2.419 5.496 1.57.46-.395 1.244-.526 1.244-1.244" fill="#fff" transform="translate(-52.809003 -188.142)"/><path d="m0 0c-1.993-.129-4.628.699-5.029 2.813-.46 2.418 2.581 3.457 4.373 3.756 1.44.238 4.045.068 4.654-1.526.01-.027 1.264-4.703-3.998-5.043" transform="translate(-142.734 -200.377)"/><path d="m0 0c.131-.918.327-1.832.459-2.684-3.862.067-8.181.657-11.126 3.141.328 1.047-.589 1.703-.457 2.683 3.402-1.765 7.59-1.636 11.124-3.14" transform="translate(-78.855001 -197.566)"/><path d="m0 0c-.261-1.439-.72-2.879-.784-4.254-3.141 1.375-6.021 3.336-8.771 5.627-.064 1.701.263 2.619.131 4.254.197 0 5.727-4.709 9.424-5.627" transform="translate(-168.705 -200.707)"/><path d="m0 0c.711-2.422-4.445-3.205-5.386-1.33-.261.521-.13 1.242.329 1.699 1.108 1.109 3.554 1.674 4.675.31.195-.236.319-.462.382-.679" fill="#fff" transform="translate(-140.546 -196.693)"/><path d="m0 0c-.98-.72-2.583-1-3.828-1.261-.243 1.308-.08 2.209.23 4.072.065.133 3.077-1.371 3.598-2.811" fill="#808d92" transform="translate(-163.667 -204.174)"/><path d="m0 0c-.982-.72-2.081-.83-3.323-1.092-.247 1.311-.985 2.332-.673 4.198.064.128 3.472-1.666 3.996-3.106" fill="#808d92" transform="translate(-73.938003 -199.914)"/><path d="m0 0c-5.301-2.922-5.954-8.179-5.496-10.993.304-1.638 1.635-3.731 3.468-4.712.656-.305 1.244-.721.981.326-2.224 2.029-4.471 10.602 3.927 13.678 8.18 2.487 23.557-1.898 30.299-11.976 2.29-4.058-1.244-7.395-3.6-10.21.131-.129.262-.326.459-.456 2.422.786 4.32 3.403 5.496 5.497.539.653.502 1.957.589 2.487.785 6.02-11.649 20.853-34.007 16.817-.652 0-1.785-.328-2.116-.458" fill="#ef5240" transform="translate(-160.067 74.273003)"/><path d="m0 0c-2.115-.505-4.796-.312-6.367.211l.132-1.439c1.832-.785 4.514-.459 6.28-.328z" fill="#467ec0" transform="translate(-76.872003 -154.26)"/><path d="m0 0c-2.161-.551-4.784-.643-6.051.322v-1.9c1.359-.815 4.422-.699 6.189-.307z" fill="#eb1c22" transform="translate(-77.056001 -160.193)"/><path d="m0 0c-1.717-.816-4.661-.654-6.429 0l-.032-1.39c2.029-.588 4.662-.652 6.543-.326z" fill="#467ec0" transform="translate(-163.323 -156.928)"/><path d="m0 0c-.287-.352-5.193-.333-6.568.386l-.195-1.701c2.157-.457 4.384-1.113 6.739-.652z" fill="#eb1c22" transform="translate(-163.184 -163.597)"/><path d="m0 0c1.935-4.344 3.082-9.052 3.402-13.796.323-4.768-.329-9.569 1.58-14.1 1.503-3.569 3.731-6.735 5.879-9.935 2.224-3.32 3.925-6.995 4.975-10.855 1.964-7.199.328-14.855.132-22.12.196-5.955 3.141-10.732 4.711-16.033 1.082-3.404 1.165-6.998 1.111-10.538-.096-6.199-.043-12.435 1.622-18.457.684-2.477 1.544-4.898 2.412-7.317 1.522-4.233 3.12-8.46 3.923-12.904.817-4.507.271-8.957.057-13.491-.198-4.188-.055-8.414 1.295-12.415 2.325-6.884 5.151-12.589 4.958-20.091-.103-3.912-1.404-11.918 1.701-14.877.282-2.008 2.351-9.635 2.351-9.635-5.755.947-11.205 2.932-17.336 2.389-2.094.135-4.122.33-6.151.461-2.553 11.972-4.859 32.394-15.707 32.523-1.635-.064-3.271-.656-4.58.457-4.908 5.76-1.111 15.118-6.282 20.746-3.076 4.924-10.143 8.637-9.424 15.574.131 7.46-.195 15.052-4.514 20.876-3.404 5.103-7.33 10.012-8.181 16.164-.916 5.972-1.161 11.371-4.843 17.604-2.86 4.842-6.216 9.488-9.292 14.265-2.356 5.693-.131 11.778 3.469 16.165 2.094 3.009 6.216 3.729 7.394 7.263 1.418 4.255 2.586 9.294 5.223 12.99 2.699 3.783 7.54 5.206 10.72 8.517 3.807 3.965 6.181 9.098 8.858 13.83 2.654 4.689 4.666 10.802 10.571 12.13z" fill="#e6e076" transform="translate(-218.882 159.906)"/><g fill="#919107"><path d="m0 0c4.734-9.388-3.401-37.933-12.368-32-4.709 3.118-6.348 8.376-7.264 13.48 0 8.64 1.375 17.734 9.162 22.643 5.323 4.079 9.141-1.484 10.47-4.123" transform="translate(-220.534 128.589)"/><path d="m0 0c.91-3.175.632-6.204.024-9.557-1.888-10.382-6.032-17.908-10.231-17.242-1.6.251-3.418 1.907-4.282 3.206-1.165 1.751-1.681 3.951-2.134 5.976-.947 4.24-.824 8.477.314 12.673.565 2.085 1.37 4.476 2.6 6.273 1.702 2.488 3.993 4.647 6.938 5.17 3.621.645 5.345-2.476 6.399-5.36.14-.381.262-.761.372-1.139" transform="translate(-221.091 125.1)"/><path d="m0 0c7.375-4.886 1.812-28.771-6.609-28.727-2.732.012-6.499 1.111-7.656 8.768-1.156 7.656 1.375 12.108 4.188 17.276 2.619 2.814 6.423 5.104 10.077 2.683" transform="translate(-219.095 74.273003)"/><path d="m0 0c3.885-8.265-4.623-25.826-10.077-21.005-4.06 3.588-3.599 9.423-2.815 14.266 2.052 5.999 3.274 9.357 8.639 10.078 2.159.459 3.402-1.833 4.253-3.339" transform="translate(-218.44 70.018997)"/><path d="m0 0c-1.853-2.509-3.926-4.909-6.631-5.585-3.338-.326-4.648 3.534-6.021 5.693-3.599 7.592-5.999 30.867 5.038 30.3 19.174.238 10.635-26.319 7.614-30.408" transform="translate(-200.814 16.707998)"/><path d="m0 0c1.178-2.421 1.899-20.527-6.283-25.718-.983-.624-2.094-1.374-3.271-.982-3.271 1.155-8.289 27.443-1.702 30.037 2.949 1.162 5.301 1.244 7.658.459 1.766-.721 2.748-2.225 3.598-3.796" transform="translate(-199.331 40.178999)"/><path d="m0 0c1.636-3.6.655-8.444-1.57-11.584-1.245-3.27-4.449-6.215-7.656-7.395-1.899-.98-2.683 1.506-3.47 2.488-1.372 4.778.851 9.293 2.357 13.545 1.439 2.881 4.188 4.321 7.068 5.172 1.44.064 2.683-.984 3.271-2.226" transform="translate(-194.292 -2.226002)"/><path d="m0 0c1.44-4.188-.263-8.639-2.813-11.911-2.029-1.439-3.273-4.187-5.956-3.466-2.159 1.832-.655 4.908-.655 7.199 1.179 3.664 2.292 8.898 7.068 9.619.982-.067 2.093-.328 2.356-1.441" transform="translate(-195.535 -3.47)"/></g><path d="m0 0c.082-.35.154-.706.214-1.07 1.112-6.641 1.097-13.715 4.092-19.891 1.278-2.637 3.482-4.923 4.876-7.541 1.399-2.624 2.416-5.413 3.105-8.305 1.441-6.039 1.668-12.269 2.075-18.439.233-3.508.511-7.051 1.051-10.531.753-4.845 2.917-9.452 3.663-14.348 1.151-7.55-1.079-15.07.32-22.71.987-5.376 2.992-10.012 5.251-14.938 2.535-5.537 3.799-12.438 3.042-18.507-1.244-9.957 1.695-17.306 4.322-26.749 1.125-4.041 1.348-7.836.886-11.989-.477-4.269.283-8.195.38-12.431-3.104 2.959-1.803 10.965-1.701 14.877.193 7.502-2.632 13.207-4.956 20.091-1.352 4.001-1.494 8.227-1.297 12.415.215 4.534.76 8.984-.057 13.491-.803 4.444-2.4 8.671-3.921 12.904-.87 2.417-1.73 4.84-2.414 7.317-1.665 6.02-1.716 12.258-1.622 18.457.054 3.54-.029 7.134-1.11 10.538-1.57 5.301-4.515 10.078-4.712 16.033.197 7.265 1.832 14.921-.13 22.12-1.052 3.86-2.752 7.535-4.977 10.855-2.147 3.2-4.375 6.366-5.879 9.935-1.909 4.531-1.257 9.332-1.578 14.1-.322 4.744-1.469 9.452-3.404 13.796-.109.247.021.607.172.789 2.499-1.047 3.76-7.894 4.309-10.269" fill="#7e862d" transform="translate(-214.401 150.426)"/><path d="m0 0c1.899 5.823 1.243 13.349-.654 18.976-1.638 9.352 3.406 18.32 5.176 27.27 1.411 7.142 1.361 14.915-1.38 21.745-1.388 6.822 1.126 13.14 2.971 19.589 1.887 6.596 2.601 13.927.425 20.543-1.573 4.782-3.212 8.985-2.284 14.053 2.422 13.219 8.049 31.411-5.693 40.705-5.497 3.009-13.023 2.028-18.847.26-8.441-1.832-14.527 3.927-22.903 3.141-6.958.142-13.452-4.5-20.409-2.276-2.873.919-5.758 1.781-8.722 2.358-6.017 1.171-12.381 1.398-18.184-.867-9.881-2.879-20.417.328-29.512 3.338-9.36 3.665-19.633.065-28.402-2.356-9.357.066-17.014 4.057-26.242 4.386-7.133.392-11.975-4.909-19.174-4.583-8.114 1.44-16.031 5.236-24.932 2.881-12.805-4.015-16.687-20.681-18.521-23.429-3.01-7.002-11.32-6.544-14.92-12.563-1.869-3.127-2.559-6.743-3.036-10.309-.496-3.709-.598-4.822-4.16-6.321-1.662-.7-3.01-1.359-4.339-2.617-5.925-5.614-8.433-15.017-4.167-22.367 1.923-3.316 3.561-6.78 5.863-9.862 2.55-3.412 5.36-6.997 6.071-11.302.682-4.132-.808-8.648 1.413-12.479 3.534-6.153 8.769-11.257 12.826-17.276 2.88-6.48-.852-13.154.982-19.764 2.945-6.085 11.582-9.554 11.582-16.62-.85-3.797-.065-8.443 2.357-11.65.916-1.637 3.337-2.815 3.01-4.713 0 0 .929.746 3.609.557-4.736 5.523-3.462 15.842-8.633 21.47-3.075 4.924-10.143 8.637-9.423 15.574.13 7.46-.196 15.052-4.515 20.876-3.404 5.105-7.33 10.012-8.181 16.164-.916 5.972-1.161 11.369-4.843 17.604-2.86 4.842-6.216 9.488-9.292 14.265-2.355 5.693-.131 11.778 3.469 16.165 2.094 3.01 6.217 3.729 7.394 7.263 1.418 4.255 2.586 9.294 5.222 12.99 2.7 3.783 7.542 5.206 10.721 8.516 3.807 3.966 6.181 9.099 8.858 13.831 2.654 4.689 4.666 10.802 10.571 12.13 7.307 1.641 15.151-2.454 22.543-2.118 5.366-.064 10.471 2.292 16.032 2.683 7.473.527 14.657-2.019 22.031-2.675 7.784-.691 14.527 2.714 22.151 3.136 4.565.254 8.839-.759 13.055-2.004 6.229-1.842 12.33-4.198 19.069-3.757 6.05.397 11.925 2.226 17.983 2.529 6.22.308 11.885-1.81 17.882-2.986 8.109-1.591 15.98 2.224 24.084 2.504 5.112.178 9.912-1.766 14.903-2.49 6.525-.942 12.998 1.829 19.528 1.485 8.559-.449 12.178-6.672 12.418-14.915.108-3.733-.454-7.438-.847-11.141-.354-3.316-.163-6.754-.8-10.027-.77-3.967.126-7.945.933-11.828 1.413-6.783 1.735-14.556.473-21.387-1.249-6.774-3.722-13.356-2.705-20.35.713-4.89 2.19-10.047 1.753-15.019-.479-5.42-1.836-10.715-3.207-15.965-1.186-4.54-3.053-9.476-2.667-14.236.209-2.594.543-4.909 1.165-7.451.791-3.24 1.724-7.545 1.343-10.882-.392-3.441-2.123-6.617-3.576-9.704-3.026-6.436-3.725-14.188-3.755-21.666-.017106-4.2324.042298-8.688729-1.066675-12.748367-.706301-2.585568-1.886537-5.010225-3.862325-7.113633-2.797-3.648-7.078-3.486-11.204-2.961-4.958.627-9.724.092-14.52-1.236-6.936-1.92-12.471-1.877-19.482.049-6.739 1.853-14.213 2.211-20.889-.102-6.478-1.508-13.611-3.142-20.548-1.572-8.376 2.681-17.866 4.777-27.027 2.812-4.189-.894-8.421-1.924-12.723-2.041-4.098-.111-7.787 1.149-11.785 1.684-7.409.99-14.811-1.19-22.234-.922-7.454.266-14.052 3.527-21.708 2.85-2.095.132-4.123.33-6.152.461l.443-2.721c6.823-.855 11.256 2.553 17.276-.131 3.168-.971 4.123-1.506 5.824-3.271.62-.895 1.465-1.166 2.159-1.311 6.022.983 11.649 2.619 17.93 2.881 3.404-.523 6.374-.596 9.425-1.898 1.981-.846 7.315-2.2 8.769-1.243.916.848 2.945.26 4.253.784 7.461 2.488 16.753 3.14 24.671 1.57 2.859-.131 4.603-.676 7.657-1.111 1.617-.288 4.45-1.112 4.45-1.112 5.235.326 10.732-.197 15.706 1.44 1.858.502 2.579-.68 4.384.261 2.75 1.7 6.609.721 10.013 1.44 5.234-.654 10.143-2.162 15.247-3.141 1.833-.295 3.631-.443 5.039.457 1.406.899 5.001.85 6.717 1.252 2.33.551 4.647 1.164 7.016 1.537 3.031.479 6.082.559 9.043-.334 2.913-.877 5.485-2.05 8.595-1.715 1.466.184 3.969-.462 3.837.7-.174 1.525 3.368 3.922 4.213 5.193.743 1.119 1.029 2.305 1.398 3.588.172.599 1.607 7.264 2.045 7.25.313.638.195 2.945.195 2.945-.914 7.92-.85 17.016 2.945 23.756.945 1.32 2.843 5.873 3.01 6.742" fill="#7e862d" stroke="#7e862d" stroke-width=".719502"/></g></g></svg>