<svg viewBox="0 0 603 182" fill="none" xmlns="http://www.w3.org/2000/svg">
<g clip-path="url(#clip0_1_2)">
<path d="M374.006 142.184C339.007 167.981 288.277 181.745 244.6 181.745C183.358 181.745 128.224 159.094 86.5125 121.42C83.2354 118.458 86.1717 114.42 90.1042 116.727C135.119 142.918 190.777 158.674 248.27 158.674C287.045 158.674 329.7 150.652 368.92 134.004C374.845 131.488 379.8 137.884 374.006 142.184Z" fill="currentColor"/>
<path d="M388.557 125.536C384.1 119.821 358.984 122.836 347.711 124.173C344.277 124.593 343.752 121.604 346.846 119.454C366.849 105.376 399.673 109.439 403.5 114.158C407.328 118.903 402.504 151.806 383.707 167.509C380.823 169.921 378.07 168.637 379.355 165.438C383.576 154.899 393.04 131.278 388.557 125.536" fill="currentColor"/>
<path d="M348.497 20.066V6.38079C348.497 4.30966 350.07 2.92017 351.958 2.92017H413.227C415.193 2.92017 416.766 4.33588 416.766 6.38079V18.0997C416.74 20.066 415.088 22.6352 412.152 26.6988L380.403 72.0278C392.201 71.7394 404.654 73.4959 415.35 79.5258C417.762 80.8891 418.418 82.8815 418.601 84.8478V99.4506C418.601 101.443 416.399 103.776 414.092 102.57C395.242 92.6866 370.205 91.6117 349.363 102.675C347.239 103.829 345.011 101.522 345.011 99.5292V85.6605C345.011 83.4321 345.037 79.6306 347.265 76.2487L384.047 23.5004H352.037C350.07 23.5004 348.497 22.1109 348.497 20.066" fill="currentColor"/>
<path d="M124.999 105.454H106.359C104.576 105.323 103.16 103.986 103.029 102.282V6.61676C103.029 4.70293 104.628 3.18234 106.621 3.18234H124.003C125.812 3.26094 127.253 4.65048 127.385 6.38079V18.8862H127.725C132.261 6.80026 140.781 1.16364 152.264 1.16364C163.931 1.16364 171.219 6.80026 176.462 18.8862C180.972 6.80026 191.223 1.16364 202.207 1.16364C210.02 1.16364 218.567 4.38831 223.784 11.6242C229.683 19.6727 228.477 31.3654 228.477 41.6162L228.451 101.994C228.451 103.907 226.851 105.454 224.859 105.454H206.245C204.383 105.323 202.889 103.829 202.889 101.994V51.2902C202.889 47.2529 203.256 37.1856 202.365 33.3579C200.975 26.9348 196.807 25.1258 191.406 25.1258C186.897 25.1258 182.178 28.1408 180.264 32.9647C178.35 37.7886 178.534 45.8633 178.534 51.2902V101.994C178.534 103.907 176.934 105.454 174.942 105.454H156.328C154.44 105.323 152.972 103.829 152.972 101.994L152.946 51.2902C152.946 40.62 154.703 24.9161 141.463 24.9161C128.066 24.9161 128.591 40.2267 128.591 51.2902V101.994C128.591 103.907 126.991 105.454 124.999 105.454Z" fill="currentColor"/>
<path d="M469.514 1.16364C497.173 1.16364 512.143 24.9161 512.143 55.1179C512.143 84.2972 495.6 107.447 469.514 107.447C442.354 107.447 427.567 83.6943 427.567 54.0955C427.567 24.3131 442.537 1.16364 469.514 1.16364M469.672 20.6952C455.934 20.6952 455.069 39.414 455.069 51.0805C455.069 62.7732 454.885 87.7317 469.514 87.7317C483.96 87.7317 484.642 67.5971 484.642 55.3276C484.642 47.2529 484.301 37.6051 481.863 29.9497C479.765 23.2907 475.597 20.6952 469.672 20.6952" fill="currentColor"/>
<path d="M548.008 105.454H529.446C527.585 105.323 526.09 103.829 526.09 101.994L526.064 6.30214C526.221 4.54561 527.768 3.18234 529.656 3.18234H546.933C548.558 3.26094 549.895 4.3621 550.262 5.85646V20.4855H550.603C555.82 7.40325 563.135 1.16364 576.007 1.16364C584.37 1.16364 592.524 4.17858 597.767 12.4369C602.644 20.0922 602.644 32.9647 602.644 42.2192V102.439C602.434 104.117 600.887 105.454 599.052 105.454H580.359C578.655 105.323 577.239 104.065 577.056 102.439V50.4775C577.056 40.017 578.262 24.7064 565.389 24.7064C560.854 24.7064 556.685 27.7475 554.614 32.3617C551.993 38.208 551.652 44.0282 551.652 50.4775V101.994C551.626 103.907 550 105.454 548.008 105.454" fill="currentColor"/>
<path d="M299.655 59.7583V55.7209C286.18 55.7209 271.944 58.6048 271.944 74.4922C271.944 82.5407 276.113 87.9938 283.27 87.9938C288.513 87.9938 293.206 84.7692 296.169 79.5258C299.839 73.0764 299.655 67.0203 299.655 59.7583M318.453 105.192C317.221 106.293 315.438 106.372 314.048 105.638C307.861 100.499 306.76 98.1135 303.352 93.211C293.127 103.645 285.892 106.765 272.626 106.765C256.948 106.765 244.731 97.0911 244.731 77.7168C244.731 62.5897 252.937 52.2865 264.604 47.2529C274.723 42.796 288.854 42.0095 299.655 40.7773V38.3653C299.655 33.9347 299.996 28.6913 297.401 24.8637C295.12 21.4293 290.768 20.0135 286.94 20.0135C279.836 20.0135 273.491 23.6577 271.944 31.2081C271.63 32.886 270.397 34.5377 268.72 34.6163L250.63 32.6763C249.109 32.3355 247.431 31.1033 247.851 28.77C252.019 6.85271 271.813 0.24605 289.536 0.24605C298.607 0.24605 310.457 2.658 317.614 9.52681C326.685 17.9949 325.82 29.2943 325.82 41.59V70.6383C325.82 79.3685 329.438 83.1961 332.846 87.9152C334.052 89.5931 334.314 91.6118 332.794 92.8702C328.992 96.0424 322.228 101.941 318.505 105.245L318.453 105.192" fill="currentColor"/>
<path d="M55.2883 59.7583V55.7209C41.8128 55.7209 27.577 58.6048 27.577 74.4922C27.577 82.5407 31.7455 87.9938 38.9027 87.9938C44.1461 87.9938 48.8389 84.7692 51.8014 79.5258C55.4718 73.0764 55.2883 67.0203 55.2883 59.7583M74.0857 105.192C72.8535 106.293 71.0708 106.372 69.6813 105.638C63.4941 100.499 62.393 98.1135 58.9848 93.211C48.7602 103.645 41.5244 106.765 28.2587 106.765C12.581 106.765 0.363968 97.0911 0.363968 77.7168C0.363968 62.5897 8.56984 52.2865 20.2363 47.2529C30.356 42.796 44.4869 42.0095 55.2883 40.7773V38.3653C55.2883 33.9347 55.6291 28.6913 53.0336 24.8637C50.7527 21.4293 46.4007 20.0135 42.5731 20.0135C35.4683 20.0135 29.1238 23.6577 27.577 31.2081C27.2624 32.886 26.0302 34.5377 24.3524 34.6163L6.26276 32.6763C4.74218 32.3355 3.0643 31.1033 3.48377 28.77C7.65225 6.85271 27.446 0.24605 45.1686 0.24605C54.2396 0.24605 66.0896 2.658 73.2468 9.52681C82.3178 17.9949 81.4527 29.2943 81.4527 41.59V70.6383C81.4527 79.3685 85.0706 83.1961 88.4788 87.9152C89.6848 89.5931 89.9469 91.6118 88.4263 92.8702C84.6249 96.0424 77.861 101.941 74.1382 105.245L74.0857 105.192" fill="currentColor"/>
</g>
<defs>
<clipPath id="clip0_1_2">
<rect width="603" height="182" fill="currentColor"/>
</clipPath>
</defs>
</svg>
