<svg viewBox="0 0 1650 470" fill="none" xmlns="http://www.w3.org/2000/svg">
<g clip-path="url(#clip0_1_19)">
<path d="M0.0711365 5.89532H460.417V468.709H0.0711365V5.89532ZM94.8145 77.9396V409.992L383.458 240.271L94.8145 77.9396ZM615.357 463.796H535.918V257.53H615.837C675.056 257.53 710.576 304.401 710.576 364.099C710.576 423.816 679.011 463.796 615.357 463.796M685.902 210.683L670.142 164.79H594.137L580.312 210.683H538.873L608.442 3.94012H650.381L728.341 210.683H685.902ZM611.901 292.573H579.331V431.708H614.378C660.75 431.708 667.664 392.228 667.164 362.141C667.164 338.447 655.814 292.573 611.901 292.573M655.814 123.333L629.662 47.3515L606.488 122.856L604.987 135.661H656.314C656.314 128.77 656.814 127.288 655.814 123.333M725.401 463.796V257.53H877.366V292.077H766.821V335.989H864.518V373.491H767.321V428.753H880.821V463.796H725.401ZM868.474 210.683L777.69 71.0262V210.683H736.252V3.94012H778.691L865.996 141.593V3.94012H907.454V210.683H868.474ZM998.237 463.296H958.762L890.694 268.399V257.53H932.11L978.5 408.511L1023.9 258.031H1064.35V268.881L998.237 463.296ZM1063.88 210.683L1048.07 164.79H972.09L958.285 210.683H916.827L986.398 3.94012H1028.35L1106.29 210.683H1063.88ZM1034.25 124.31L1008.11 46.3744L981.936 124.31V135.661H1035.24C1035.24 128.77 1035.24 127.769 1034.25 124.31ZM1077.18 258.031H1121.09V463.296H1077.18V258.031ZM1115.16 210.683V3.94012H1156.14V175.639H1248.38V210.683H1115.16ZM1230.14 468.709C1117.16 471.187 1097.4 253.098 1230.62 254.575C1304.65 254.575 1317.47 316.251 1320.43 325.62H1279.47C1273.06 312.815 1256.27 288.141 1235.58 286.641C1162.55 281.727 1162.55 436.144 1235.58 436.144C1270.61 436.144 1279 401.12 1280.95 397.184H1320.93C1320.93 397.665 1315.97 467.732 1230.14 468.709M1343.62 214.119C1210.89 214.119 1215.84 -0.0184265 1345.1 0.981313C1469.94 1.9584 1473.39 214.119 1343.62 214.119ZM1342.14 179.595C1418.61 180.072 1418.61 36.9828 1343.62 36.0057C1269.13 35.5054 1266.65 179.095 1342.14 179.595M1328.33 463.796V257.53H1474.85V295.056H1367.8V337.466H1462.52V374.468H1368.28V428.753H1479.81V463.796H1328.33ZM1606.61 205.727V186.009C1602.18 189.941 1582.42 215.116 1545.42 214.119C1419.13 211.16 1418.61 3.94016 1551.36 1.46298C1583.4 1.46298 1610.05 21.7001 1620.42 36.0057C1632.76 52.2882 1633.75 66.1122 1634.24 69.5714H1599.21C1591.31 56.7205 1578.96 35.0247 1549.88 35.0247C1472.89 34.0476 1467.98 179.595 1549.38 181.054C1585.4 182.031 1603.64 144.552 1603.64 144.071V133.202H1554.31V101.137H1639.16V205.727H1606.61ZM1568.11 469.209C1480.78 469.209 1481.77 402.101 1481.77 402.101H1521.24C1521.24 402.101 1518.27 434.667 1562.22 437.625C1573.07 438.122 1608.59 433.689 1608.59 409.011C1608.59 380.405 1572.55 381.86 1549.88 375.468C1527.15 369.532 1484.24 359.662 1484.24 319.706C1484.24 284.682 1512.85 254.575 1568.11 254.575C1642.14 255.076 1641.64 312.315 1642.14 315.77H1604.16C1601.66 307.36 1599.21 287.141 1566.16 286.163C1549.88 286.163 1525.19 291.596 1525.19 310.815C1525.19 335.012 1552.81 338.447 1581.94 342.88C1625.86 351.294 1651.03 364.623 1649.53 405.056C1648.55 440.58 1616.97 469.209 1568.11 469.209" fill="currentColor"/>
</g>
<defs>
<clipPath id="clip0_1_19">
<rect width="1650" height="470" fill="currentColor"/>
</clipPath>
</defs>
</svg>
