<svg viewBox="0 0 1486 525" fill="none" xmlns="http://www.w3.org/2000/svg">
<g clip-path="url(#clip0_1_46)">
<path d="M823.861 34.1167C830.007 46.5131 826.397 62.7561 819.982 73.8857L770.35 185.513L769.921 186.036L751.981 72.7942C750.541 61.92 762.163 57.2804 769.004 52.0557C768.657 50.4577 766.898 50.5364 765.791 49.7923L749.021 49.6171L748.512 49.1106C748.607 35.0523 756.178 22.0707 769.004 15.248C782.405 7.5074 801.279 9.61185 812.903 19.5385C817.623 23.7474 821.598 28.638 823.861 34.1167Z" fill="currentColor"/>
<path d="M732.421 30.2375C736.477 37.7419 738.821 46.2606 737.395 55.6942L717.156 185.354C717.266 185.512 717.077 185.687 716.917 185.764L711.676 175.333L660.951 62.0907C656.231 47.5096 660.603 32.2647 671.228 21.8137C681.934 10.9544 699.544 8.00936 713.545 13.8994C720.956 17.0984 728.035 22.9885 732.421 30.2375Z" fill="currentColor"/>
<path d="M897.28 84.8238C904.105 96.4584 902.57 114.065 894.982 124.862C890.281 132.445 882.519 136.229 875.946 141.2L770.842 213.326H770.601L771.775 209.876L827.489 84.1599C835.835 69.3412 851.767 61.8368 868.616 64.1001C880.161 66.2075 891.706 73.7105 897.28 84.8238Z" fill="currentColor"/>
<path d="M658.513 84.1599L716.491 213.312H715.558L598.669 132.777C586.774 122.757 581.898 107.748 585.936 92.5821C588.961 81.2149 598.399 70.5932 609.627 66.3798C628.012 59.6521 648.724 66.8075 658.513 84.1599Z" fill="currentColor"/>
<path d="M927.781 175.997C933.608 188.298 931.312 205.142 922.983 215.605C914.718 225.628 903.662 231.106 890.691 230.757L766.058 230.837L870.466 158.219C880.668 151.649 896.172 150.46 907.305 155.779C915.902 159.152 923.996 167.574 927.781 175.997Z" fill="currentColor"/>
<path d="M558.711 175.997C552.9 188.298 555.179 205.142 563.526 215.605C571.792 225.628 582.813 231.106 595.801 230.757L720.433 230.837L616.024 158.219C605.826 151.649 590.323 150.46 579.205 155.779C570.603 159.152 562.512 167.574 558.711 175.997Z" fill="currentColor"/>
<path d="M334.91 305.419C274.352 305.419 225.133 354.654 225.133 415.195C225.133 475.719 274.352 524.984 334.91 524.984C395.47 524.984 444.721 475.719 444.721 415.195C444.721 354.656 395.47 305.419 334.91 305.419ZM334.91 503.358C286.277 503.358 246.701 463.799 246.701 415.196C246.701 366.607 286.277 327.046 334.91 327.046C383.545 327.046 423.12 366.608 423.12 415.196C423.12 463.799 383.545 503.358 334.91 503.358Z" fill="currentColor"/>
<path d="M1281.68 416.588C1275.79 413.499 1239.95 395.056 1234.8 392.381C1216 382.771 1209.34 374.285 1209.34 359.91C1209.34 339.932 1225.75 327.029 1251.19 327.029C1266.13 327.029 1280.57 333.6 1289.04 338.364C1290.58 339.203 1292.4 339.678 1294.3 339.678C1300.22 339.678 1305.08 334.819 1305.08 328.898C1305.08 324.909 1302.9 321.408 1299.68 319.54C1289.01 313.586 1270.81 305.434 1251.19 305.434C1213.8 305.434 1187.72 327.818 1187.72 359.91C1187.72 388.709 1206.66 402.292 1225.19 411.76C1230.38 414.403 1266.63 433.083 1272.06 435.948C1286.38 443.436 1294.3 454.677 1294.3 467.613C1294.3 484.947 1279.6 503.375 1252.41 503.375C1225.97 503.375 1205.43 485.644 1199.76 480.181L1198.06 478.566L1182.08 493.13L1183.95 494.999C1191.04 502.031 1216.99 524.984 1252.41 524.984C1292.13 524.984 1315.87 495.807 1315.87 467.613C1315.87 446.558 1303.42 427.952 1281.68 416.588Z" fill="currentColor"/>
<path d="M109.78 327.044C133.359 327.044 155.514 336.228 172.143 352.834C176.102 356.775 183.545 356.775 187.44 352.834C189.499 350.823 190.591 348.117 190.591 345.219C190.591 342.353 189.499 339.614 187.44 337.604L186.111 336.242C165.554 316.357 138.427 305.419 109.78 305.419C49.2512 305.419 0 354.671 0 415.178C0 475.72 49.2512 524.985 109.78 524.985C141.735 524.985 170.527 511.279 190.591 489.428L175.309 474.135C159.156 492.057 135.781 503.36 109.778 503.36C61.1599 503.36 21.5845 463.784 21.5845 415.18C21.586 366.623 61.1613 327.044 109.78 327.044Z" fill="currentColor"/>
<path d="M854.142 327.044C877.692 327.044 899.877 336.228 916.504 352.834C920.447 356.775 927.892 356.775 931.788 352.834C933.847 350.823 934.986 348.117 934.986 345.219C934.986 342.353 933.845 339.614 931.788 337.604L930.473 336.242C909.87 316.357 882.774 305.419 854.142 305.419C793.6 305.419 744.331 354.669 744.331 415.177C744.331 475.719 793.6 524.984 854.142 524.984C886.083 524.984 914.874 511.277 934.97 489.426L919.671 474.134C903.518 492.055 880.11 503.358 854.142 503.358C805.507 503.358 765.916 463.782 765.916 415.178C765.916 366.623 805.507 327.044 854.142 327.044Z" fill="currentColor"/>
<path d="M668.143 305.419C664.088 305.419 660.888 308.031 659.146 311.403C657.372 314.774 594.533 470.16 594.519 470.16C594.519 470.16 531.68 314.772 529.921 311.403C528.163 308.03 524.966 305.419 520.912 305.419C516.176 305.419 512.614 308.902 511.363 313.289C510.112 317.704 474.655 513.267 474.655 513.267C474.527 513.903 474.464 514.568 474.464 515.247C474.464 520.628 478.851 524.984 484.204 524.984C488.955 524.984 492.914 521.598 493.768 517.117L524.475 349.795C524.475 349.795 583.72 496.108 585.446 499.589C587.188 503.057 590.418 505.764 594.536 505.764C598.653 505.764 601.869 503.057 603.594 499.589C605.337 496.107 664.58 349.795 664.58 349.795L696.49 523.781H716.32C716.32 523.781 678.961 317.703 677.71 313.289C676.44 308.902 672.876 305.419 668.143 305.419Z" fill="currentColor"/>
<path d="M1058.54 305.434C1054.44 305.419 1051.26 308.094 1049.47 311.576C1047.69 315.044 968.15 511.45 968.15 511.45C967.674 512.604 967.404 513.888 967.404 515.249C967.404 520.629 971.76 525 977.144 525C981.245 525 984.762 522.435 986.204 518.81L1017.08 442.869H1100.02L1132.96 523.781H1154C1154 523.781 1069.34 315.043 1067.6 311.575C1065.87 308.094 1062.66 305.419 1058.54 305.434ZM1025.89 421.256L1058.54 340.99L1091.23 421.256H1025.89Z" fill="currentColor"/>
<path d="M1475.17 306.589H1352.91C1346.96 306.589 1342.13 311.435 1342.13 317.403C1342.13 323.339 1346.96 328.183 1352.91 328.183H1404.16V523.764H1423.95V328.185H1475.17C1481.12 328.185 1486 323.34 1486 317.404C1486 311.435 1481.12 306.589 1475.17 306.589Z" fill="currentColor"/>
</g>
<defs>
<clipPath id="clip0_1_46">
<rect width="1486" height="525" fill="currentColor" transform="translate(0 0.000274658)"/>
</clipPath>
</defs>
</svg>
