<svg viewBox="0 0 486 458" fill="none" xmlns="http://www.w3.org/2000/svg">
<g clip-path="url(#clip0_1_15)">
<path fill-rule="evenodd" clip-rule="evenodd" d="M383.086 447.123C390.687 447.123 393.218 444.046 394.121 437.891L403.864 362.954C405.459 353.18 408.424 350.835 412.123 347.863L473.4 302.515C477.019 299.618 480.367 294.531 481.135 290.376C484.147 274.955 485.658 259.279 485.649 243.568C485.649 109.561 377.011 0.924072 243 0.924072C108.994 0.924072 0.353867 109.564 0.353867 243.568C0.353867 259.583 1.90764 275.232 4.86475 290.376C5.63515 294.531 8.98395 299.615 12.6025 302.515L73.8795 347.863C77.5784 350.835 80.5407 353.183 82.136 362.954L91.8737 437.891C92.7816 444.046 95.3159 447.123 102.916 447.123H168.074V408.027H149.613C135.133 408.027 127.712 406.582 125.541 389.929L120.656 355.904C119.209 346.49 123.554 338.527 139.478 350.838C159.527 366.332 200.288 394.995 200.288 394.995C206.804 399.342 209.699 408.024 196.667 408.024H168.074V447.12H211.146C222.368 454.721 230.331 457.076 242.639 457.076L242.818 417.619C236.302 417.619 229.971 412.372 224.178 408.024L56.2224 283.87C42.1035 272.288 39.5718 266.132 39.7223 243.568C39.7208 235.628 40.179 227.696 41.0945 219.81C43.9167 210.025 50.0696 202.062 64.1859 216.904L194.675 354.454C196.485 356.628 199.925 354.278 197.209 351.196L59.6594 192.472C53.6881 185.772 50.4301 181.429 56.0486 163.617C60.3312 153.617 64.5464 144.144 71.423 136.544C74.4034 133.817 86.4446 119.53 95.6765 136.181L208.428 342.327C210.062 345.266 213.678 343.411 212.228 340.335L101.103 118.08C95.3133 105.595 98.6102 101.274 101.103 98.1714C104.361 93.8291 124.27 77.7206 134.767 71.3862C144.775 66.0479 153.114 61.1608 157.21 77.1759L225.984 334.001C226.886 337.796 230.689 337.077 229.965 333.093L169.519 65.5991C167.711 58.3594 170.95 53.2337 180.732 50.0043C193.772 44.9668 209.699 40.9851 223.091 41.3456C231.779 41.3456 236.847 46.4142 236.847 57.6357L240.829 332.735C241.192 336.356 244.99 335.993 245.171 332.735L249.153 57.6357C249.153 46.4142 254.219 41.3456 262.909 41.3456C276.304 40.9851 292.228 44.9668 305.268 50.0043C315.05 53.2337 318.289 58.3594 316.479 65.5991L256.032 333.1C255.308 337.082 259.108 337.801 260.014 334.008L328.79 77.1837C332.883 61.166 341.217 66.0556 351.227 71.394C361.725 77.7284 381.636 93.8369 384.894 98.1791C387.387 101.282 390.684 105.6 384.894 118.088L273.769 340.343C272.319 343.419 275.933 345.271 277.57 342.335L390.326 136.188C399.558 119.538 411.594 133.825 414.58 136.551C421.454 144.152 425.669 153.625 429.957 163.625C435.575 181.437 432.317 185.78 426.343 192.48L288.794 351.204C286.078 354.285 289.517 356.635 291.328 354.462L421.822 216.912C435.936 202.07 442.091 210.033 444.908 219.817C445.279 223.013 445.583 226.235 445.8 229.49C446.114 234.136 446.283 238.839 446.283 243.575C446.436 266.14 443.902 272.296 429.783 283.878L261.83 408.032C256.04 412.379 249.342 417.627 242.824 417.627L242.645 457.084C254.95 457.084 263.638 454.728 274.859 447.128H311.058V408.032H289.338C276.309 408.032 279.201 399.347 285.717 395.003C285.717 395.003 326.481 366.337 346.532 350.846C362.457 338.535 366.802 346.498 365.354 355.912L360.465 389.937C358.291 406.59 350.875 408.035 336.395 408.035H311.058V447.131H383.086V447.123V447.123Z" fill="currentColor"/>
</g>
<defs>
<clipPath id="clip0_1_15">
<rect width="486" height="458" fill="currentColor"/>
</clipPath>
</defs>
</svg>
