<svg width="256" height="75" viewBox="0 0 256 75" fill="none" xmlns="http://www.w3.org/2000/svg">
<path fill-rule="evenodd" clip-rule="evenodd" d="M220.355 16.4672C222.698 11.4032 226.322 3.58139 226.487 3.32514C227.073 2.43436 227.988 1.50703 229.715 0.866402C231.002 0.384405 233.076 0 236.45 0C240.495 0 242.85 0.591855 244.223 1.25689C247.225 2.70898 247.774 4.78335 247.78 6.61982L247.786 8.44409L248.787 8.42584C250.349 8.42584 251.624 8.69429 252.704 9.56066C253.412 10.122 254.156 10.9883 254.614 12.5991C254.9 13.6119 255.12 15.247 255.12 17.8766C255.12 20.4636 254.9 22.1292 254.608 23.2213C254.473 23.7094 254.315 24.1365 254.138 24.5087C254.119 24.8626 254.01 25.2164 253.802 25.5275L247.792 34.6673V39.9753C249.299 39.9875 250.538 40.2559 251.594 41.104C252.301 41.6714 253.046 42.5317 253.503 44.1424C253.79 45.1552 254.01 46.7904 254.01 49.42C254.01 52.5865 253.662 54.4352 253.247 55.5334C252.82 56.6622 243.808 71.6956 243.619 71.8604C243.619 71.8604 241.032 74.0385 237.762 74.0385H225.358C223.571 74.0385 221.374 73.4528 219.885 71.8055C218.891 70.7072 218.165 69.127 218.165 66.8452V59.9446C215.065 64.5633 210.288 72.0068 210.264 72.0373C210.264 72.0373 209.184 74.0934 203.302 74.0934H164.364C162.296 74.0934 160.649 73.3795 159.489 72.202C158.635 71.3356 158.037 70.1947 157.793 68.8342C156.579 70.7011 155.731 72.0251 155.725 72.0373C155.725 72.0373 154.639 74.0934 148.757 74.0934H109.819C107.751 74.0934 106.103 73.3795 104.95 72.202C103.809 71.0427 103.12 69.4016 103.12 67.3821C103.12 59.9386 103.12 35.7166 103.12 35.7654C103.12 35.7654 103.126 33.5263 104.529 31.2627C105.725 29.3225 114.999 13.258 115.719 12.1964C117.177 10.0548 120.698 8.92611 123.828 8.92611C126.958 8.92611 148.928 9.03596 153.779 9.03596C158.824 9.03596 161.765 10.6955 163.577 12.6174C165.359 14.5149 166.073 16.8577 166.353 18.8101C168.318 15.4483 169.971 12.6234 170.258 12.1964C171.716 10.0548 175.243 8.92611 178.373 8.92611C181.503 8.92611 203.467 9.03596 208.324 9.03596C213.369 9.03596 216.31 10.6955 218.122 12.6174C219.227 13.7949 219.922 15.1433 220.355 16.4672ZM149.959 40.0241C149.959 39.7434 149.849 39.475 149.654 39.2797C149.459 39.0845 149.19 38.9747 148.916 38.9747C144.126 38.9869 124.578 39.0357 124.578 39.0357C120.917 39.0357 117.165 37.2359 117.165 33.5995C117.165 32.3671 117.067 21.4703 117.067 21.092C117.067 15.0335 120.624 12.4953 124.682 12.4953H154.529C163.37 12.4953 163.351 20.2134 163.351 22.544C163.351 24.0571 163.644 26.0889 157.83 26.0889C152.015 26.0889 151.43 25.2225 151.43 24.533C151.43 23.8436 150.96 23.4592 150.484 23.4592C150.008 23.4592 135.932 23.4775 131.485 23.4775C131.155 23.4775 130.844 23.6117 130.606 23.8436C130.374 24.0754 130.246 24.3927 130.246 24.7222C130.246 25.3689 130.246 26.6441 130.246 27.2908C130.246 27.6203 130.374 27.9315 130.606 28.1633C130.844 28.4013 131.155 28.5294 131.485 28.5294C136.799 28.5294 157.348 28.5294 157.348 28.5294C161.002 28.5294 163.351 30.3293 163.351 33.9656V50.4145C163.351 53.6421 160.85 55.5518 156.793 55.5518H125.322C119.398 55.5518 117.165 52.0863 117.165 47.7605V44.0509C117.165 43.2577 117.848 41.4945 123.663 41.4945C129.477 41.4945 129.752 42.2815 130.075 42.9222C130.393 43.5506 130.881 44.0509 131.485 44.0509C132.089 44.0509 144.816 44.057 148.916 44.057C149.19 44.057 149.459 43.9472 149.654 43.7519C149.849 43.5567 149.959 43.2882 149.959 43.0076C149.959 42.1351 149.959 40.8966 149.959 40.0241ZM204.504 40.0241C204.504 39.7434 204.394 39.475 204.199 39.2797C203.998 39.0845 203.735 38.9747 203.455 38.9747C198.665 38.9869 179.117 39.0357 179.117 39.0357C175.462 39.0357 171.71 37.2359 171.71 33.5995C171.71 32.3671 171.612 21.4703 171.612 21.092C171.612 15.0335 175.17 12.4953 179.227 12.4953H209.068C217.909 12.4953 217.896 20.2134 217.896 22.544C217.896 24.0571 218.189 26.0889 212.369 26.0889C206.554 26.0889 205.969 25.2225 205.969 24.533C205.969 23.8436 205.505 23.4592 205.029 23.4592C204.553 23.4592 190.477 23.4775 186.03 23.4775C185.7 23.4775 185.383 23.6117 185.151 23.8436C184.919 24.0754 184.785 24.3927 184.785 24.7222C184.785 25.3689 184.785 26.6441 184.785 27.2908C184.785 27.6203 184.919 27.9315 185.151 28.1633C185.383 28.4013 185.7 28.5294 186.03 28.5294C191.344 28.5294 211.893 28.5294 211.893 28.5294C215.547 28.5294 217.896 30.3293 217.896 33.9656V50.4145C217.896 53.6421 215.389 55.5518 211.332 55.5518H179.861C173.943 55.5518 171.71 52.0863 171.71 47.7605V44.0509C171.71 43.2577 172.393 41.4945 178.208 41.4945C184.022 41.4945 184.297 42.2815 184.614 42.9222C184.931 43.5506 185.426 44.0509 186.03 44.0509C186.634 44.0509 199.361 44.057 203.455 44.057C203.735 44.057 204.004 43.9472 204.199 43.7519C204.394 43.5567 204.504 43.2882 204.504 43.0076C204.504 42.1351 204.504 40.8966 204.504 40.0241ZM230.526 12.3977L230.447 6.65036C230.447 5.23487 230.544 3.88648 236.926 3.88648C243.223 3.88648 243.845 5.29591 243.845 6.59547L243.863 12.3977L248.781 12.3123C250.202 12.3123 251.191 12.0194 251.191 17.84C251.191 23.0444 250.318 23.6728 249.19 23.7521V23.7582H243.863V41.5921C243.863 43.9228 245.181 43.935 245.181 43.935L247.67 43.8618C249.086 43.8618 250.074 43.5628 250.074 49.3834C250.074 55.1979 248.994 55.3016 247.67 55.3016C247.67 55.3016 236.316 55.3016 233.815 55.3016C230.123 55.3016 230.526 52.5316 230.526 50.8416V23.7582L228.616 23.7643C227.201 23.7643 226.212 24.0572 226.212 18.2427C226.212 12.4221 227.292 12.3184 228.616 12.3184L230.526 12.3977Z" fill="#303055"/>
<path fill-rule="evenodd" clip-rule="evenodd" d="M22.337 60.4979C22.3966 60.4122 22.4028 60.2993 22.353 60.202C22.3031 60.1085 22.2054 60.0501 22.0991 60.0501C19.846 60.0501 11.0677 60.0501 5.27474 60.0501C3.87508 60.0501 2.53263 59.4934 1.54333 58.5045C0.554023 57.5155 -0.00116617 56.1723 1.83922e-06 54.7707C0.00584188 47.4812 0.0163547 34.7257 0.0202481 30.2823C0.0210268 29.247 0.292407 28.2301 0.807499 27.3323C2.66541 24.0942 7.35379 15.9232 9.79493 11.6685C10.7422 10.0177 12.4997 9 14.4027 9H68.939C70.0863 9 71.1438 9.62293 71.6998 10.6266C72.2561 11.6307 72.2234 12.8571 71.6149 13.8305C69.5907 17.0663 67.0643 21.1052 65.7503 23.2061C65.5716 23.4919 65.5619 23.852 65.7254 24.1467C65.8885 24.4415 66.1988 24.6244 66.536 24.6244C69.4486 24.6244 75.5491 24.6244 79.8233 24.6244C82.3905 24.6244 84.4719 26.7058 84.4719 29.2731C84.4719 35.5959 84.4719 46.8006 84.4719 52.7695C84.4719 55.3936 83.8066 57.9788 82.5381 60.2759C80.9399 63.1726 78.3465 67.2762 76.7109 70.239C75.4312 72.5595 72.9912 74 70.3418 74C59.5439 74 31.5689 74 19.1585 74C17.9854 74 16.9085 73.3537 16.3591 72.3142C15.8098 71.2786 15.8779 70.0249 16.5363 69.0555C18.7676 65.7617 21.4466 61.8138 22.337 60.4979ZM30.2253 58.0372C29.1551 58.0372 28.1513 58.5551 27.5346 59.4311C25.8336 61.845 22.3569 66.7778 20.6072 69.2579C20.4028 69.5499 20.3771 69.9276 20.5406 70.2429C20.7037 70.5583 21.0288 70.7568 21.3839 70.7568C29.2189 70.7568 59.6152 70.7568 69.1586 70.7568C70.918 70.7568 72.5427 69.8147 73.4199 68.2885C74.6688 66.1199 76.8141 62.9584 78.1004 60.7237C78.4193 60.1708 78.4185 59.4856 78.0977 58.9327C77.7773 58.376 77.1855 58.0372 76.545 58.0372C66.8965 58.0372 37.6138 58.0372 30.2253 58.0372ZM16.7543 44.3532C14.9548 44.3595 13.2577 45.1903 12.1492 46.6083C10.5678 48.6317 8.23056 51.621 6.49529 53.8402C6.06313 54.3931 5.98411 55.1445 6.29169 55.7752C6.59926 56.4059 7.23971 56.8069 7.94168 56.8069C13.8055 56.8069 24.455 56.8069 24.455 56.8069C25.0382 55.5766 26.2783 54.7902 27.6402 54.7902C34.1713 54.7902 53.1919 54.7902 59.5552 54.7902C60.861 54.7902 62.0726 54.1127 62.7544 52.9992C63.9652 51.0214 65.9006 47.8596 67.0963 45.9067C67.3104 45.5567 67.3186 45.1179 67.1173 44.7605C66.916 44.4027 66.5372 44.1816 66.1264 44.1831C57.8234 44.2119 26.4215 44.3198 16.7543 44.3532ZM67.4774 52.1544C67.1465 52.6839 67.1297 53.3574 67.4342 53.9025C67.7387 54.4515 68.316 54.7902 68.9429 54.7902C71.6729 54.7902 75.6044 54.7902 78.2036 54.7902C78.9181 54.7902 79.6037 54.506 80.109 54.0037C80.614 53.4976 80.8982 52.8124 80.8982 52.096C80.8982 46.9201 80.8982 35.6434 80.8982 30.5096C80.8982 29.0512 79.7158 27.8688 78.2574 27.8688C69.8018 27.8688 43.4569 27.8688 35.0566 27.8688C33.4362 27.8688 31.9283 28.6969 31.0589 30.0646C29.5265 32.4754 27.7422 36.3193 26.2331 38.6935C25.9652 39.1151 25.9481 39.6493 26.1887 40.0877C26.4293 40.5257 26.8895 40.7978 27.389 40.7978C34.9807 40.7978 57.3064 40.7978 68.4099 40.7978C69.6476 40.7978 70.7875 41.4687 71.3887 42.5506C71.9898 43.6322 71.9567 44.9548 71.303 46.0056C70.0003 48.0994 68.5547 50.4218 67.4774 52.1544ZM59.934 24.6244C60.2887 24.6244 60.6193 24.4453 60.8131 24.1483C61.8375 22.5796 65.1437 17.5163 66.9503 14.7501C67.1897 14.383 67.2092 13.9146 67.0005 13.5291C66.7918 13.1437 66.3888 12.9035 65.9504 12.9035C57.9897 12.9035 30.6065 12.9035 19.2153 12.9035C17.8803 12.9035 16.5998 13.4338 15.656 14.3779C14.7119 15.3216 14.1816 16.6022 14.1816 17.9368C14.1816 22.9472 14.1816 30.6105 14.1816 35.7376C14.1816 37.1393 14.7559 38.4801 15.7705 39.4472C16.7847 40.4147 18.1513 40.9244 19.5513 40.8578C19.5517 40.8578 20.2108 40.8578 20.2108 40.8578C20.2284 40.7153 25.5381 31.5484 28.469 27.0547C29.458 25.5386 31.1457 24.6244 32.9558 24.6244C39.8003 24.6244 56.629 24.6244 59.934 24.6244Z" fill="#303055"/>
</svg>
