<svg width="169" height="152" viewBox="0 0 169 152" fill="none" xmlns="http://www.w3.org/2000/svg">
<path d="M80 151.8C35.4 151.8 0.199997 118.4 0.199997 76.2C0.199997 33.4 35.8 0.599976 80 0.599976C120.4 0.599976 144 15 158 37.2C165 48.2 168.4 61.2 168.4 76.2C168.4 106.4 153.4 129 128.6 142C116.4 148.4 100.2 151.8 80 151.8ZM75.2 142.6C111.4 142.6 141.4 113.2 141.4 76.4C141.4 40 111.6 10.2 75.2 10.2C38.2 10.2 9.6 41 9.6 76.4C9.6 100 22.2 122.2 42.4 133.8C52.6 139.6 63.4 142.6 75.2 142.6Z" fill="#E27152"/>
</svg>
