<?xml version="1.0" standalone="no"?>
<!DOCTYPE svg PUBLIC "-//W3C//DTD SVG 20010904//EN"
 "http://www.w3.org/TR/2001/REC-SVG-20010904/DTD/svg10.dtd">
<svg version="1.0" xmlns="http://www.w3.org/2000/svg"
 width="416.000000pt" height="416.000000pt" viewBox="0 0 416.000000 416.000000"
 preserveAspectRatio="xMidYMid meet">
<metadata>
Created by potrace 1.11, written by Peter Selinger 2001-2013
</metadata>
<g transform="translate(0.000000,416.000000) scale(0.100000,-0.100000)"
fill="#000000" stroke="none">
<path d="M605 3656 c-68 -32 -95 -59 -151 -157 -27 -46 -54 -93 -61 -104 -7
-11 -16 -27 -20 -35 -4 -8 -72 -127 -152 -265 -79 -137 -161 -281 -180 -319
l-36 -70 0 -675 c0 -635 1 -678 18 -713 27 -53 84 -108 136 -131 44 -19 66
-20 494 -20 279 -1 447 -4 447 -10 0 -6 -62 -101 -137 -213 -76 -112 -146
-218 -155 -236 -46 -85 -2 -192 90 -218 26 -8 426 -10 1347 -8 l1310 3 59 30
c81 41 125 88 192 202 31 54 97 165 147 247 133 222 173 309 195 426 4 19 7
332 7 695 l0 660 -22 42 c-27 51 -82 96 -132 112 -26 7 -155 11 -389 11 -305
0 -353 2 -366 16 -9 8 -16 22 -16 29 0 8 68 123 151 256 83 132 156 256 162
274 21 69 -20 152 -90 181 -27 12 -266 14 -1415 14 l-1383 0 -50 -24z m2677
-186 c43 -34 52 -15 -180 -370 -63 -96 -116 -177 -119 -180 -3 -3 -327 -7
-721 -10 -675 -5 -719 -6 -752 -24 -67 -36 -100 -75 -213 -260 -7 -11 -31 -51
-54 -88 -24 -38 -43 -70 -43 -73 0 -2 -16 -29 -35 -59 -19 -30 -35 -57 -35
-59 0 -2 -31 -56 -68 -118 -76 -127 -80 -129 -168 -110 -65 15 -127 60 -162
119 l-27 47 -3 500 c-3 565 -4 553 73 630 76 77 -8 72 1308 72 1099 0 1179 -1
1199 -17z m639 -743 c63 -43 62 -25 62 -639 0 -520 -1 -561 -18 -592 -36 -66
-50 -69 -324 -70 -135 -1 -258 2 -274 7 -59 19 -73 80 -32 141 14 20 25 38 25
40 0 2 36 61 80 131 44 71 84 142 89 159 20 74 -17 158 -86 192 -36 17 -84 18
-1080 19 -931 0 -1044 2 -1058 16 -32 32 -27 62 28 160 30 52 85 152 123 223
77 143 113 188 176 216 42 19 75 20 1149 20 l1106 0 34 -23z m-628 -796 c23
-18 21 -48 -6 -93 -191 -323 -236 -384 -297 -403 -14 -5 -396 -9 -850 -9 -914
-1 -851 3 -915 -67 l-31 -34 -412 1 c-440 1 -449 2 -471 51 -21 45 -13 69 46
143 6 8 35 44 63 80 28 36 57 72 64 81 8 9 42 54 76 99 35 45 79 92 99 105 79
52 93 54 498 55 207 0 378 1 379 3 1 1 394 2 872 2 722 0 872 -2 885 -14z
m525 -681 c25 -16 44 -72 35 -98 -7 -19 -184 -306 -242 -392 -41 -61 -85 -95
-141 -110 -24 -7 -460 -9 -1240 -8 l-1203 3 -14 21 c-12 19 -9 28 39 100 29
44 55 81 59 84 3 3 30 41 60 85 30 44 57 82 60 85 3 3 35 48 72 101 37 53 73
102 82 109 43 36 60 36 1247 36 1014 -1 1166 -3 1186 -16z"/>
</g>
</svg>
