<?xml version="1.0" standalone="no"?>
<!DOCTYPE svg PUBLIC "-//W3C//DTD SVG 20010904//EN"
 "http://www.w3.org/TR/2001/REC-SVG-20010904/DTD/svg10.dtd">
<svg version="1.0" xmlns="http://www.w3.org/2000/svg"
 width="260.000000pt" height="260.000000pt" viewBox="0 0 260.000000 260.000000"
 preserveAspectRatio="xMidYMid meet">
<metadata>
Created by potrace 1.14, written by Peter Selinger 2001-2017
</metadata>
<g transform="translate(0.000000,260.000000) scale(0.100000,-0.100000)"
fill="#000000" stroke="none">
<path d="M0 1300 l0 -1300 1300 0 1300 0 0 1300 0 1300 -1300 0 -1300 0 0
-1300z m2253 732 l127 -127 -113 -113 -112 -112 -130 130 -130 130 110 110
c60 60 112 110 115 110 3 0 63 -57 133 -128z m-831 -705 c-232 -232 -422 -427
-422 -433 0 -13 52 -64 66 -64 5 0 199 190 431 422 l423 423 57 -58 58 -57
-564 -564 -563 -564 -157 -70 c-86 -39 -191 -87 -234 -106 l-77 -36 14 33 c7
17 55 124 105 237 l92 205 562 562 562 563 35 -35 35 -35 -423 -423z"/>
<path d="M823 718 c-37 -38 -63 -79 -93 -146 -23 -52 -40 -96 -37 -98 2 -2 48
16 103 42 96 44 201 125 188 146 -3 4 -18 8 -34 8 -44 0 -60 10 -61 39 -1 63
-11 65 -66 9z"/>
</g>
</svg>
